<?xml version="1.0" encoding="utf-8"?>
<COLLADA xmlns="http://www.collada.org/2005/11/COLLADASchema" version="1.4.1" xmlns:xsi="http://www.w3.org/2001/XMLSchema-instance">
  <asset>
    <contributor>
      <author>Blender User</author>
      <authoring_tool>Blender 2.90.1 commit date:2020-09-23, commit time:06:43, hash:3e85bb34d0d7</authoring_tool>
    </contributor>
    <created>2020-10-28T12:00:29</created>
    <modified>2020-10-28T12:00:29</modified>
    <unit name="meter" meter="1"/>
    <up_axis>Z_UP</up_axis>
  </asset>
  <library_cameras>
    <camera id="Camera-camera" name="Camera">
      <optics>
        <technique_common>
          <perspective>
            <xfov sid="xfov">39.59775</xfov>
            <aspect_ratio>1.777778</aspect_ratio>
            <znear sid="znear">0.1</znear>
            <zfar sid="zfar">100</zfar>
          </perspective>
        </technique_common>
      </optics>
      <extra>
        <technique profile="blender">
          <shiftx sid="shiftx" type="float">0</shiftx>
          <shifty sid="shifty" type="float">0</shifty>
          <dof_distance sid="dof_distance" type="float">10</dof_distance>
        </technique>
      </extra>
    </camera>
  </library_cameras>
  <library_lights>
    <light id="Light-light" name="Light">
      <technique_common>
        <point>
          <color sid="color">1000 1000 1000</color>
          <constant_attenuation>1</constant_attenuation>
          <linear_attenuation>0</linear_attenuation>
          <quadratic_attenuation>0.00111109</quadratic_attenuation>
        </point>
      </technique_common>
      <extra>
        <technique profile="blender">
          <type sid="type" type="int">0</type>
          <flag sid="flag" type="int">0</flag>
          <mode sid="mode" type="int">1</mode>
          <gamma sid="blender_gamma" type="float">1</gamma>
          <red sid="red" type="float">1</red>
          <green sid="green" type="float">1</green>
          <blue sid="blue" type="float">1</blue>
          <shadow_r sid="blender_shadow_r" type="float">0</shadow_r>
          <shadow_g sid="blender_shadow_g" type="float">0</shadow_g>
          <shadow_b sid="blender_shadow_b" type="float">0</shadow_b>
          <energy sid="blender_energy" type="float">1000</energy>
          <dist sid="blender_dist" type="float">29.99998</dist>
          <spotsize sid="spotsize" type="float">75</spotsize>
          <spotblend sid="spotblend" type="float">0.15</spotblend>
          <att1 sid="att1" type="float">0</att1>
          <att2 sid="att2" type="float">1</att2>
          <falloff_type sid="falloff_type" type="int">2</falloff_type>
          <clipsta sid="clipsta" type="float">0.04999995</clipsta>
          <clipend sid="clipend" type="float">30.002</clipend>
          <bias sid="bias" type="float">1</bias>
          <soft sid="soft" type="float">3</soft>
          <bufsize sid="bufsize" type="int">2880</bufsize>
          <samp sid="samp" type="int">3</samp>
          <buffers sid="buffers" type="int">1</buffers>
          <area_shape sid="area_shape" type="int">1</area_shape>
          <area_size sid="area_size" type="float">0.1</area_size>
          <area_sizey sid="area_sizey" type="float">0.1</area_sizey>
          <area_sizez sid="area_sizez" type="float">1</area_sizez>
        </technique>
      </extra>
    </light>
  </library_lights>
  <library_effects>
    <effect id="Material-effect">
      <profile_COMMON>
        <technique sid="common">
          <lambert>
            <emission>
              <color sid="emission">0 0 0 1</color>
            </emission>
            <diffuse>
              <color sid="diffuse">0.8000001 0.4895341 0.0399844 1</color>
            </diffuse>
            <index_of_refraction>
              <float sid="ior">1.45</float>
            </index_of_refraction>
          </lambert>
        </technique>
      </profile_COMMON>
    </effect>
    <effect id="Material_001-effect">
      <profile_COMMON>
        <technique sid="common">
          <lambert>
            <emission>
              <color sid="emission">0 0 0 1</color>
            </emission>
            <diffuse>
              <color sid="diffuse">0.8 0.8 0.8 1</color>
            </diffuse>
            <index_of_refraction>
              <float sid="ior">1.45</float>
            </index_of_refraction>
          </lambert>
        </technique>
      </profile_COMMON>
    </effect>
  </library_effects>
  <library_images/>
  <library_materials>
    <material id="Material-material" name="Material">
      <instance_effect url="#Material-effect"/>
    </material>
    <material id="Material_001-material" name="Material.001">
      <instance_effect url="#Material_001-effect"/>
    </material>
  </library_materials>
  <library_geometries>
    <geometry id="Cube-mesh" name="Cube">
      <mesh>
        <source id="Cube-mesh-positions">
          <float_array id="Cube-mesh-positions-array" count="294">-0.8064237 -0.8285591 -0.8285591 -0.7759416 -0.7762618 0.7646106 -0.8046875 0.8046875 -0.8046875 -0.7759466 0.7759456 0.7642944 0.9184153 -0.9184153 -0.9184153 0.7797803 -0.7845987 0.7652178 0.951534 0.8279927 -0.9211403 0.7611146 0.7660272 0.7599028 -0.8538412 0 -0.8538412 -0.8515362 -0.8517771 -0.002465486 -0.8222941 0 0.8205059 -0.8505634 0.8505634 -0.002702653 -0.001274704 0.8893502 -0.8893502 -6.6316e-4 0.8218787 0.8202517 0.8792681 0.8796937 -0.003321647 0.9392884 0 -0.9392884 0.8126473 0 0.8123303 0.9392884 -0.9392884 0 0 -1 -1 -4.25844e-4 -0.8252256 0.8233642 -0.00130856 0 0.9841976 0 0 -1 0 -1 0 1.000909 0 -9.40666e-5 -0.001395106 0.9925656 -0.002139627 -0.9939606 0 -0.002139508 -0.8476563 -0.476888 -0.8499349 -0.8352099 -0.8378688 0.4610087 -0.8156018 0.4622277 0.810848 -0.8465204 0.8465204 -0.4747687 -0.4895833 0.8880209 -0.8880209 0.4566144 0.8118054 0.8090667 0.8869153 0.8867356 -0.4892217 0.9392884 0.5009538 -0.9392884 0.8078328 -0.4623549 0.804944 0.9392884 -0.9392884 -0.5009538 0.5 -1 -1 -0.4635145 -0.8196443 0.8139253 -0.8476563 0.4755859 -0.8486328 -0.8474969 -0.8497756 -0.4770474 -0.8156017 -0.4622277 0.810848 -0.8339379 0.8339378 0.4580418 0.4837542 0.8821917 -0.8831552 -0.4622425 0.8155947 0.8108398 0.828422 0.8284044 0.4601792 0.9392884 -0.5009538 -0.9392884 0.8067728 0.4613154 0.8047185 0.8747753 -0.8763781 0.4756588 -0.5 -1 -1 0.4606248 -0.8185543 0.8123611 -0.0010764 -0.4675293 0.9583321 -0.0010764 0.4674108 0.9582135 0.4613101 0 0.9532952 -0.4675742 0 0.959147 0 -0.5 -1 0 0.5 -1 -0.5 0 -1 0.5 0 -1 -0.5 -1 0 0.5 -1 0 0 -1 -0.5 -7.90507e-6 -0.9818722 0.4817661 0.9973 -0.5006323 -8.34856e-5 0.9973 0.5006324 -8.34846e-5 0.9973781 0 -0.5006407 0.9759871 0 0.4790826 0.4814753 0.9777396 -0.001962721 -0.4801325 0.9761412 -0.002268254 -0.001476466 0.9769206 -0.4802984 -0.001805365 0.9633502 0.4669414 -0.9762598 0.4800139 -0.002268254 -0.9762598 -0.4800139 -0.002268254 -0.978397 0 -0.4805873 -0.9651294 0 0.4669329 -0.948397 -0.4756722 0.4653595 -0.962121 -0.4798196 -0.4799363 -0.962121 0.4798196 -0.4799363 -0.4756728 0.94828 0.4652425 -0.4799382 0.9620024 -0.4799382 0.4818001 0.9641016 -0.4802033 0.9566363 0.4791073 0.4756907 0.9940724 0.5004469 -0.5004517 0.9940724 -0.5004469 -0.5004517 0.4892934 -0.9736275 0.4809569 0.5 -1 -0.5 -0.5 -1 -0.5 0.5 0.5 -1 -0.5 0.5 -1 -0.5 -0.5 -1 -0.4664549 0.466337 0.9358455 0.4609183 0.4657831 0.9311903 0.461035 -0.4660202 0.931307 -0.4664531 -0.4664555 0.9359641 0.5 -0.5 -1 -0.4816429 -0.965956 0.4779716 0.9673388 -0.4896803 0.4788833 0.4667636 0.939953 0.4651924 -0.948399 0.4755536 0.465241</float_array>
          <technique_common>
            <accessor source="#Cube-mesh-positions-array" count="98" stride="3">
              <param name="X" type="float"/>
              <param name="Y" type="float"/>
              <param name="Z" type="float"/>
            </accessor>
          </technique_common>
        </source>
        <source id="Cube-mesh-normals">
          <float_array id="Cube-mesh-normals-array" count="516">-0.9252351 0.3001632 0.2320395 0.2881066 0.9225516 0.2566965 0.9042618 -0.2195062 0.3662343 -0.3403573 -0.9063532 0.2503614 0.1913809 0 -0.981516 -0.1910731 -0.3219904 0.9272612 0.02722865 -0.3196055 0.9471595 0.05849325 0.04737222 0.9971632 -0.3371723 0.04778975 0.9402292 0 0 -1 0.1369032 0 -0.9905845 -0.3968121 -0.9179 0 0 -1 0 0.01595366 -0.9050993 0.424901 0.9922977 -0.1238765 0 0.9999533 0.006607413 -0.007053315 0.9085225 0.03963929 0.4159516 0.1879243 0.9820331 0.0171895 -0.03117287 0.9990761 -0.02958524 -0.03095048 0.9327095 0.3592982 -0.953234 0.300902 -0.02833783 -0.9989864 -0.03392666 -0.02958345 -0.9324395 -0.03398942 0.3597242 -0.9975332 -0.0368005 0.05977791 -0.9471878 -0.3177966 0.04290235 -0.9257552 -0.2921836 0.240013 -0.948473 -0.01489394 -0.3165081 -0.9470685 -0.1289124 -0.2940117 -0.9551402 -0.2960059 -0.009377717 -0.9418476 0.1622649 -0.2942673 -0.9484598 0.01580101 -0.3165035 -0.9989864 0.03392672 -0.02958345 -0.03424233 0.9976242 0.05977964 -0.3207702 0.9460533 0.04571217 -0.2999778 0.9253003 0.2320188 -0.003164112 0.9839695 -0.1783093 -0.2924968 0.9421187 -0.1638842 -0.3007099 0.9532945 -0.02833968 0.1047722 0.9873971 -0.118616 0.01700419 0.9798332 -0.1990924 0.02651065 0.9992429 -0.02847754 0.9963142 0.007179915 0.08547818 0.9455249 0.2955825 0.1364322 0.8990809 0.3421484 0.2731082 0.9922976 0 -0.1238777 0.9918387 -0.03026509 -0.1238554 0.963545 0.2674722 -0.006314277 0.990764 -0.05571925 -0.1236218 0.9999533 -0.006607413 -0.007053315 0 -0.9985001 0.05475121 0.1353968 -0.979685 0.1479361 0.2326676 -0.9025164 0.362395 0.1913808 -0.981516 0 0.1369032 -0.9905844 0 -0.4882645 -0.8726958 0 0.01631885 0.273379 -0.961768 -0.04397809 0.290372 -0.9559027 -0.3817323 0.01508522 -0.9241499 -0.4033694 0.1726566 -0.8986006 0 0.277275 -0.9607907 -0.3999495 -0.1022558 -0.9108151 -0.3817458 -0.01252114 -0.9241826 -0.05356603 0.05545282 0.9970234 -0.02393347 0.362625 0.9316279 -0.1794672 0.3334308 0.9255352 0.3722951 0.02005124 0.9278978 0.3395369 0.1864691 0.9219241 0.05623078 0.3329107 0.9412803 0.3401207 -0.1441687 0.929265 0.3424665 -0.01857221 0.9393466 0.05847054 -0.04708445 0.9971782 -0.04573494 -0.3527335 0.9346055 -0.05356687 -0.05518662 0.9970381 -0.3374696 -0.04753589 0.9401354 -0.3884336 -0.9205505 0.04130762 0 -0.9974731 0.07104605 -0.03341472 -0.9156522 0.4005803 0.9801442 -0.1295941 0.1500759 0.9980132 -0.00719279 0.06259393 0.8976308 -0.01603245 0.4404566 0.2376281 0.96227 0.1325493 0.03055745 0.9962014 0.08154171 0.04801928 0.935503 0.3500406 -0.9459923 0.3209497 0.04571646 -0.9975319 0.03680044 0.0597983 -0.9324789 0.03408521 0.359613 -0.917782 0.1693108 0.3591799 0.1940339 0.9173523 0.3475854 0.8860169 -0.1319275 0.4444878 -0.1877676 -0.8967689 0.4006856 0.1365664 -0.05627983 -0.989031 -0.3338412 -0.1784418 0.9255855 0.05578386 -0.3523916 0.9341886 0.0665481 0.05535 0.9962468 -0.3639184 0.02472352 0.9311026 0.1369031 0 -0.9905846 -0.3884667 -0.9214348 -0.007192373 0.02309477 -0.9087302 0.4167446 0.9913476 -0.1311051 -0.006443083 0.9999532 0.007208526 -0.006452679 0.8977819 0.0186932 0.4400435 0.2391336 0.9705968 -0.02751618 -0.03426051 0.9988787 -0.03267699 -0.02021509 0.9281309 0.3717047 -0.9469469 0.3212069 -0.01086127 -0.9987936 -0.03682261 -0.03249007 -0.9269906 -0.02124595 0.3744826 -0.9974947 -0.03529083 0.06131035 -0.952583 -0.2983992 0.05952858 -0.9178068 -0.168821 0.359347 -0.9547418 -0.03278696 -0.2956237 -0.947009 -0.2944164 -0.1284259 -0.9476954 -0.3179295 -0.02818089 -0.9412287 0.2989337 -0.1572495 -0.9544138 0.03277701 -0.2966817 -0.9987936 0.03682255 -0.03249007 -0.03194743 0.9975584 0.06210267 -0.3045921 0.9506192 0.05955737 -0.1692722 0.9178688 0.3589763 -0.03063178 0.9773816 -0.2092537 -0.2987459 0.941291 -0.1572332 -0.3210272 0.9470077 -0.0108599 0.179785 0.9641612 -0.1951172 0.02596998 0.9775162 -0.2092553 0.03068506 0.9989944 -0.03269159 0.9978241 0.04066872 0.05189615 0.9330923 0.3467428 0.09543716 0.8887102 0.1942437 0.4152877 0.9913235 0.006597816 -0.13128 0.9588088 0.2628439 0.1076979 0.9545587 0.2973954 0.01933318 0.990764 -0.1236211 -0.05571919 0.9913235 -0.006597757 -0.13128 0.9999532 -0.007208585 -0.006452679 0.01689791 -0.9991502 0.03759598 0.2449526 -0.9677674 0.05851882 0.158056 -0.8890409 0.4296796 0.1365662 -0.989031 -0.05627983 0.1369032 -0.9905845 0 -0.4004076 -0.9106702 -0.1017528 0 0.292365 -0.9563068 0.1366274 0.0497865 -0.9893707 -0.3991969 0 -0.9168652 -0.3124731 0.271125 -0.910413 -0.003362655 0.2733542 -0.9619076 -0.4882645 0 -0.8726958 -0.3963043 0 -0.9181193 -0.04806387 0.04996216 0.997594 -0.04597419 0.3371189 0.940339 -0.333457 0.1794912 0.9255211 0.3436024 0.04480654 0.9380457 0.1984685 0.3283889 0.923456 0.0307697 0.3625015 0.9314751 0.1714091 -0.3151432 0.9334366 0.3720099 -0.04396718 0.9271869 0.066549 -0.05508404 0.9962616 -0.02319556 -0.3266723 0.944853 -0.04806381 -0.04969662 0.9976073 -0.3639184 -0.02472358 0.9311026 0.1369032 0 -0.9905844 -0.3429059 -0.9359712 0.07983487 -0.03330051 -0.9987387 0.03757941 -0.01944744 -0.9088203 0.4167343 0.9702801 -0.2328054 0.06601798 0.9984947 -0.01765573 0.05193102 0.8978183 -0.01637876 0.4400614 0.2947283 0.9516798 0.08625966 0.05000615 0.9968147 0.06212735 0.02952849 0.9279716 0.3714793 -0.950557 0.304786 0.05955564 -0.997494 0.03531068 0.06131029 -0.9269906 0.02124577 0.3744826</float_array>
          <technique_common>
            <accessor source="#Cube-mesh-normals-array" count="172" stride="3">
              <param name="X" type="float"/>
              <param name="Y" type="float"/>
              <param name="Z" type="float"/>
            </accessor>
          </technique_common>
        </source>
        <source id="Cube-mesh-map-0">
          <float_array id="Cube-mesh-map-0-array" count="1152">0.5625 0.1875 0.625 0.25 0.5625 0.25 0.5625 0.4375 0.625 0.5 0.5625 0.5 0.5625 0.6875 0.625 0.75 0.5625 0.75 0.5625 0.9375 0.625 1 0.5625 1 0.3125 0.6875 0.375 0.75 0.3125 0.75 0.8125 0.6875 0.875 0.75 0.8125 0.75 0.6875 0.6875 0.75 0.75 0.6875 0.75 0.75 0.5625 0.6875 0.625 0.6875 0.5625 0.875 0.5625 0.8125 0.625 0.8125 0.5625 0.25 0.6875 0.1875 0.75 0.1875 0.6875 0.25 0.5625 0.1875 0.625 0.1875 0.5625 0.3125 0.5625 0.375 0.625 0.3125 0.625 0.5 0.9375 0.4375 1 0.4375 0.9375 0.5 0.8125 0.4375 0.875 0.4375 0.8125 0.625 0.8125 0.5625 0.875 0.5625 0.8125 0.4375 0.6875 0.5 0.75 0.4375 0.75 0.4375 0.5625 0.5 0.625 0.4375 0.625 0.625 0.5625 0.5625 0.625 0.5625 0.5625 0.4375 0.4375 0.5 0.5 0.4375 0.5 0.5 0.3125 0.4375 0.375 0.4375 0.3125 0.625 0.3125 0.5625 0.375 0.5625 0.3125 0.5 0.1875 0.4375 0.25 0.4375 0.1875 0.5 0.0625 0.4375 0.125 0.4375 0.0625 0.625 0.0625 0.5625 0.125 0.5625 0.0625 0.5625 0.0625 0.5 0.125 0.5 0.0625 0.5625 0 0.5 0.0625 0.5 0 0.625 0 0.5625 0.0625 0.5625 0 0.375 0.0625 0.4375 0.125 0.375 0.125 0.375 0 0.4375 0.0625 0.375 0.0625 0.5 0 0.4375 0.0625 0.4375 0 0.4375 0.1875 0.375 0.25 0.375 0.1875 0.4375 0.125 0.375 0.1875 0.375 0.125 0.4375 0.125 0.5 0.1875 0.4375 0.1875 0.5625 0.3125 0.5 0.375 0.5 0.3125 0.5625 0.25 0.5 0.3125 0.5 0.25 0.625 0.25 0.5625 0.3125 0.5625 0.25 0.4375 0.3125 0.375 0.375 0.375 0.3125 0.375 0.25 0.4375 0.3125 0.375 0.3125 0.4375 0.25 0.5 0.3125 0.4375 0.3125 0.375 0.4375 0.4375 0.5 0.375 0.5 0.375 0.375 0.4375 0.4375 0.375 0.4375 0.4375 0.375 0.5 0.4375 0.4375 0.4375 0.5625 0.5625 0.5 0.625 0.5 0.5625 0.5625 0.5 0.5 0.5625 0.5 0.5 0.625 0.5 0.5625 0.5625 0.5625 0.5 0.4375 0.5625 0.375 0.625 0.375 0.5625 0.375 0.5 0.4375 0.5625 0.375 0.5625 0.4375 0.5 0.5 0.5625 0.4375 0.5625 0.4375 0.6875 0.375 0.75 0.375 0.6875 0.375 0.625 0.4375 0.6875 0.375 0.6875 0.5 0.625 0.4375 0.6875 0.4375 0.625 0.5625 0.8125 0.5 0.875 0.5 0.8125 0.5625 0.75 0.5 0.8125 0.5 0.75 0.625 0.75 0.5625 0.8125 0.5625 0.75 0.4375 0.8125 0.375 0.875 0.375 0.8125 0.375 0.75 0.4375 0.8125 0.375 0.8125 0.5 0.75 0.4375 0.8125 0.4375 0.75 0.4375 0.9375 0.375 1 0.375 0.9375 0.4375 0.875 0.375 0.9375 0.375 0.875 0.5 0.875 0.4375 0.9375 0.4375 0.875 0.3125 0.5625 0.25 0.625 0.25 0.5625 0.3125 0.5 0.25 0.5625 0.25 0.5 0.375 0.5 0.3125 0.5625 0.3125 0.5 0.125 0.5625 0.1875 0.625 0.125 0.625 0.125 0.5 0.1875 0.5625 0.125 0.5625 0.1875 0.5 0.25 0.5625 0.1875 0.5625 0.1875 0.6875 0.125 0.75 0.125 0.6875 0.1875 0.625 0.125 0.6875 0.125 0.625 0.25 0.625 0.1875 0.6875 0.1875 0.625 0.75 0.5625 0.8125 0.625 0.75 0.625 0.8125 0.5 0.75 0.5625 0.75 0.5 0.875 0.5 0.8125 0.5625 0.8125 0.5 0.625 0.5625 0.6875 0.625 0.625 0.625 0.625 0.5 0.6875 0.5625 0.625 0.5625 0.6875 0.5 0.75 0.5625 0.6875 0.5625 0.6875 0.6875 0.625 0.75 0.625 0.6875 0.625 0.625 0.6875 0.6875 0.625 0.6875 0.6875 0.625 0.75 0.6875 0.6875 0.6875 0.8125 0.6875 0.75 0.75 0.75 0.6875 0.8125 0.625 0.75 0.6875 0.75 0.625 0.8125 0.625 0.875 0.6875 0.8125 0.6875 0.3125 0.6875 0.25 0.75 0.25 0.6875 0.3125 0.625 0.25 0.6875 0.25 0.625 0.375 0.625 0.3125 0.6875 0.3125 0.625 0.5 0.9375 0.5625 1 0.5 1 0.5 0.875 0.5625 0.9375 0.5 0.9375 0.5625 0.875 0.625 0.9375 0.5625 0.9375 0.5 0.6875 0.5625 0.75 0.5 0.75 0.5 0.625 0.5625 0.6875 0.5 0.6875 0.5625 0.625 0.625 0.6875 0.5625 0.6875 0.5 0.4375 0.5625 0.5 0.5 0.5 0.5 0.375 0.5625 0.4375 0.5 0.4375 0.5625 0.375 0.625 0.4375 0.5625 0.4375 0.5 0.1875 0.5625 0.25 0.5 0.25 0.5 0.125 0.5625 0.1875 0.5 0.1875 0.5625 0.125 0.625 0.1875 0.5625 0.1875 0.5625 0.1875 0.625 0.1875 0.625 0.25 0.5625 0.4375 0.625 0.4375 0.625 0.5 0.5625 0.6875 0.625 0.6875 0.625 0.75 0.5625 0.9375 0.625 0.9375 0.625 1 0.3125 0.6875 0.375 0.6875 0.375 0.75 0.8125 0.6875 0.875 0.6875 0.875 0.75 0.6875 0.6875 0.75 0.6875 0.75 0.75 0.75 0.5625 0.75 0.625 0.6875 0.625 0.875 0.5625 0.875 0.625 0.8125 0.625 0.25 0.6875 0.25 0.75 0.1875 0.75 0.25 0.5625 0.25 0.625 0.1875 0.625 0.3125 0.5625 0.375 0.5625 0.375 0.625 0.5 0.9375 0.5 1 0.4375 1 0.5 0.8125 0.5 0.875 0.4375 0.875 0.625 0.8125 0.625 0.875 0.5625 0.875 0.4375 0.6875 0.5 0.6875 0.5 0.75 0.4375 0.5625 0.5 0.5625 0.5 0.625 0.625 0.5625 0.625 0.625 0.5625 0.625 0.4375 0.4375 0.5 0.4375 0.5 0.5 0.5 0.3125 0.5 0.375 0.4375 0.375 0.625 0.3125 0.625 0.375 0.5625 0.375 0.5 0.1875 0.5 0.25 0.4375 0.25 0.5 0.0625 0.5 0.125 0.4375 0.125 0.625 0.0625 0.625 0.125 0.5625 0.125 0.5625 0.0625 0.5625 0.125 0.5 0.125 0.5625 0 0.5625 0.0625 0.5 0.0625 0.625 0 0.625 0.0625 0.5625 0.0625 0.375 0.0625 0.4375 0.0625 0.4375 0.125 0.375 0 0.4375 0 0.4375 0.0625 0.5 0 0.5 0.0625 0.4375 0.0625 0.4375 0.1875 0.4375 0.25 0.375 0.25 0.4375 0.125 0.4375 0.1875 0.375 0.1875 0.4375 0.125 0.5 0.125 0.5 0.1875 0.5625 0.3125 0.5625 0.375 0.5 0.375 0.5625 0.25 0.5625 0.3125 0.5 0.3125 0.625 0.25 0.625 0.3125 0.5625 0.3125 0.4375 0.3125 0.4375 0.375 0.375 0.375 0.375 0.25 0.4375 0.25 0.4375 0.3125 0.4375 0.25 0.5 0.25 0.5 0.3125 0.375 0.4375 0.4375 0.4375 0.4375 0.5 0.375 0.375 0.4375 0.375 0.4375 0.4375 0.4375 0.375 0.5 0.375 0.5 0.4375 0.5625 0.5625 0.5625 0.625 0.5 0.625 0.5625 0.5 0.5625 0.5625 0.5 0.5625 0.625 0.5 0.625 0.5625 0.5625 0.5625 0.4375 0.5625 0.4375 0.625 0.375 0.625 0.375 0.5 0.4375 0.5 0.4375 0.5625 0.4375 0.5 0.5 0.5 0.5 0.5625 0.4375 0.6875 0.4375 0.75 0.375 0.75 0.375 0.625 0.4375 0.625 0.4375 0.6875 0.5 0.625 0.5 0.6875 0.4375 0.6875 0.5625 0.8125 0.5625 0.875 0.5 0.875 0.5625 0.75 0.5625 0.8125 0.5 0.8125 0.625 0.75 0.625 0.8125 0.5625 0.8125 0.4375 0.8125 0.4375 0.875 0.375 0.875 0.375 0.75 0.4375 0.75 0.4375 0.8125 0.5 0.75 0.5 0.8125 0.4375 0.8125 0.4375 0.9375 0.4375 1 0.375 1 0.4375 0.875 0.4375 0.9375 0.375 0.9375 0.5 0.875 0.5 0.9375 0.4375 0.9375 0.3125 0.5625 0.3125 0.625 0.25 0.625 0.3125 0.5 0.3125 0.5625 0.25 0.5625 0.375 0.5 0.375 0.5625 0.3125 0.5625 0.125 0.5625 0.1875 0.5625 0.1875 0.625 0.125 0.5 0.1875 0.5 0.1875 0.5625 0.1875 0.5 0.25 0.5 0.25 0.5625 0.1875 0.6875 0.1875 0.75 0.125 0.75 0.1875 0.625 0.1875 0.6875 0.125 0.6875 0.25 0.625 0.25 0.6875 0.1875 0.6875 0.75 0.5625 0.8125 0.5625 0.8125 0.625 0.8125 0.5 0.8125 0.5625 0.75 0.5625 0.875 0.5 0.875 0.5625 0.8125 0.5625 0.625 0.5625 0.6875 0.5625 0.6875 0.625 0.625 0.5 0.6875 0.5 0.6875 0.5625 0.6875 0.5 0.75 0.5 0.75 0.5625 0.6875 0.6875 0.6875 0.75 0.625 0.75 0.625 0.625 0.6875 0.625 0.6875 0.6875 0.6875 0.625 0.75 0.625 0.75 0.6875 0.8125 0.6875 0.8125 0.75 0.75 0.75 0.8125 0.625 0.8125 0.6875 0.75 0.6875 0.8125 0.625 0.875 0.625 0.875 0.6875 0.3125 0.6875 0.3125 0.75 0.25 0.75 0.3125 0.625 0.3125 0.6875 0.25 0.6875 0.375 0.625 0.375 0.6875 0.3125 0.6875 0.5 0.9375 0.5625 0.9375 0.5625 1 0.5 0.875 0.5625 0.875 0.5625 0.9375 0.5625 0.875 0.625 0.875 0.625 0.9375 0.5 0.6875 0.5625 0.6875 0.5625 0.75 0.5 0.625 0.5625 0.625 0.5625 0.6875 0.5625 0.625 0.625 0.625 0.625 0.6875 0.5 0.4375 0.5625 0.4375 0.5625 0.5 0.5 0.375 0.5625 0.375 0.5625 0.4375 0.5625 0.375 0.625 0.375 0.625 0.4375 0.5 0.1875 0.5625 0.1875 0.5625 0.25 0.5 0.125 0.5625 0.125 0.5625 0.1875 0.5625 0.125 0.625 0.125 0.625 0.1875</float_array>
          <technique_common>
            <accessor source="#Cube-mesh-map-0-array" count="576" stride="2">
              <param name="S" type="float"/>
              <param name="T" type="float"/>
            </accessor>
          </technique_common>
        </source>
        <vertices id="Cube-mesh-vertices">
          <input semantic="POSITION" source="#Cube-mesh-positions"/>
        </vertices>
        <triangles count="192">
          <input semantic="VERTEX" source="#Cube-mesh-vertices" offset="0"/>
          <input semantic="NORMAL" source="#Cube-mesh-normals" offset="1"/>
          <input semantic="TEXCOORD" source="#Cube-mesh-map-0" offset="2" set="0"/>
          <p>97 0 0 3 0 1 41 0 2 96 1 3 7 1 4 44 1 5 95 2 6 5 2 7 47 2 8 94 3 9 1 3 10 27 3 11 93 4 12 4 4 13 36 4 14 92 5 15 1 5 16 37 5 17 91 6 18 19 6 19 49 6 20 51 7 21 52 7 22 90 7 23 28 8 24 53 8 25 89 8 26 54 9 27 48 9 28 88 9 29 55 9 30 56 9 31 87 9 32 86 10 33 15 10 34 57 10 35 58 11 36 39 11 37 85 11 38 59 12 39 60 12 40 84 12 41 49 13 42 61 13 43 83 13 44 82 14 45 17 14 46 35 14 47 81 15 48 23 15 49 64 15 50 46 16 51 65 16 52 80 16 53 79 17 54 14 17 55 32 17 56 67 18 57 68 18 58 78 18 59 43 19 60 69 19 61 77 19 62 70 20 63 29 20 64 76 20 65 71 21 66 72 21 67 75 21 68 40 22 69 73 22 70 74 22 71 74 23 72 25 23 73 71 23 74 27 24 75 71 24 76 9 24 77 1 25 78 74 25 79 27 25 80 26 26 81 72 26 82 8 26 83 0 27 84 75 27 85 26 27 86 9 28 87 75 28 88 39 28 89 76 29 90 2 29 91 38 29 92 72 30 93 38 30 94 8 30 95 72 31 96 70 31 97 76 31 98 77 32 99 24 32 100 67 32 101 41 33 102 67 33 103 11 33 104 3 34 105 77 34 106 41 34 107 78 35 108 12 35 109 30 35 110 2 36 111 78 36 112 30 36 113 29 37 114 67 37 115 78 37 116 42 38 117 32 38 118 6 38 119 12 39 120 79 39 121 42 39 122 68 40 123 66 40 124 79 40 125 80 41 126 23 41 127 63 41 128 44 42 129 63 42 130 14 42 131 7 43 132 80 43 133 44 43 134 81 44 135 15 44 136 33 44 137 6 45 138 81 45 139 33 45 140 32 46 141 63 46 142 81 46 143 82 47 144 4 47 145 45 47 146 15 44 147 82 44 148 45 44 149 23 48 150 82 48 151 64 48 152 83 49 153 22 49 154 59 49 155 47 50 156 59 50 157 17 50 158 5 51 159 83 51 160 47 51 161 84 12 162 18 12 163 36 12 164 4 52 165 84 52 166 36 52 167 17 53 168 84 53 169 35 53 170 85 54 171 0 54 172 48 54 173 60 12 174 48 12 175 18 12 176 22 12 177 85 12 178 60 12 179 86 9 180 21 9 181 55 9 182 42 55 183 55 55 184 12 55 185 6 56 186 86 56 187 42 56 188 38 57 189 56 57 190 8 57 191 2 58 192 87 58 193 38 58 194 30 59 195 55 59 196 87 59 197 88 60 198 0 60 199 26 60 200 56 61 201 26 61 202 8 61 203 21 9 204 88 9 205 56 9 206 51 62 207 53 62 208 20 62 209 43 63 210 51 63 211 13 63 212 3 64 213 89 64 214 43 64 215 46 65 216 52 65 217 16 65 218 7 66 219 90 66 220 46 66 221 31 67 222 51 67 223 90 67 224 91 68 225 5 68 226 34 68 227 16 69 228 91 69 229 34 69 230 52 70 231 50 70 232 91 70 233 92 71 234 19 71 235 50 71 236 53 72 237 50 72 238 20 72 239 53 73 240 40 73 241 92 73 242 93 9 243 18 9 244 54 9 245 57 9 246 54 9 247 21 9 248 15 10 249 93 10 250 57 10 251 58 74 252 27 74 253 9 74 254 22 75 255 94 75 256 58 75 257 61 76 258 37 76 259 94 76 260 62 77 261 47 77 262 17 77 263 23 78 264 95 78 265 62 78 266 65 79 267 34 79 268 95 79 269 66 80 270 44 80 271 14 80 272 24 81 273 96 81 274 66 81 275 69 82 276 31 82 277 96 82 278 70 83 279 41 83 280 11 83 281 25 84 282 97 84 283 70 84 284 73 85 285 28 85 286 97 85 287 97 86 288 28 86 289 3 86 290 96 87 291 31 87 292 7 87 293 95 88 294 34 88 295 5 88 296 94 89 297 37 89 298 1 89 299 93 90 300 45 90 301 4 90 302 92 91 303 40 91 304 1 91 305 91 92 306 50 92 307 19 92 308 51 93 309 20 93 310 52 93 311 28 94 312 10 94 313 53 94 314 54 9 315 18 9 316 48 9 317 55 9 318 21 9 319 56 9 320 86 95 321 33 95 322 15 95 323 58 96 324 9 96 325 39 96 326 59 12 327 22 12 328 60 12 329 49 97 330 19 97 331 61 97 332 82 98 333 62 98 334 17 98 335 81 99 336 63 99 337 23 99 338 46 100 339 16 100 340 65 100 341 79 101 342 66 101 343 14 101 344 67 102 345 24 102 346 68 102 347 43 103 348 13 103 349 69 103 350 70 104 351 11 104 352 29 104 353 71 105 354 25 105 355 72 105 356 40 106 357 10 106 358 73 106 359 74 107 360 73 107 361 25 107 362 27 108 363 74 108 364 71 108 365 1 109 366 40 109 367 74 109 368 26 110 369 75 110 370 72 110 371 0 111 372 39 111 373 75 111 374 9 112 375 71 112 376 75 112 377 76 113 378 29 113 379 2 113 380 72 114 381 76 114 382 38 114 383 72 115 384 25 115 385 70 115 386 77 116 387 69 116 388 24 116 389 41 117 390 77 117 391 67 117 392 3 118 393 43 118 394 77 118 395 78 119 396 68 119 397 12 119 398 2 120 399 29 120 400 78 120 401 29 121 402 11 121 403 67 121 404 42 122 405 79 122 406 32 122 407 12 123 408 68 123 409 79 123 410 68 124 411 24 124 412 66 124 413 80 125 414 65 125 415 23 125 416 44 126 417 80 126 418 63 126 419 7 127 420 46 127 421 80 127 422 81 128 423 64 128 424 15 128 425 6 129 426 32 129 427 81 129 428 32 130 429 14 130 430 63 130 431 82 131 432 35 131 433 4 131 434 15 132 435 64 132 436 82 132 437 23 133 438 62 133 439 82 133 440 83 134 441 61 134 442 22 134 443 47 135 444 83 135 445 59 135 446 5 136 447 49 136 448 83 136 449 84 12 450 60 12 451 18 12 452 4 137 453 35 137 454 84 137 455 17 138 456 59 138 457 84 138 458 85 139 459 39 139 460 0 139 461 60 12 462 85 12 463 48 12 464 22 12 465 58 12 466 85 12 467 86 9 468 57 9 469 21 9 470 42 140 471 86 140 472 55 140 473 6 141 474 33 141 475 86 141 476 38 142 477 87 142 478 56 142 479 2 143 480 30 143 481 87 143 482 30 144 483 12 144 484 55 144 485 88 145 486 48 145 487 0 145 488 56 146 489 88 146 490 26 146 491 21 9 492 54 9 493 88 9 494 51 147 495 89 147 496 53 147 497 43 148 498 89 148 499 51 148 500 3 149 501 28 149 502 89 149 503 46 150 504 90 150 505 52 150 506 7 151 507 31 151 508 90 151 509 31 152 510 13 152 511 51 152 512 91 153 513 49 153 514 5 153 515 16 154 516 52 154 517 91 154 518 52 155 519 20 155 520 50 155 521 92 156 522 37 156 523 19 156 524 53 157 525 92 157 526 50 157 527 53 158 528 10 158 529 40 158 530 93 9 531 36 9 532 18 9 533 57 9 534 93 9 535 54 9 536 15 159 537 45 159 538 93 159 539 58 160 540 94 160 541 27 160 542 22 161 543 61 161 544 94 161 545 61 162 546 19 162 547 37 162 548 62 163 549 95 163 550 47 163 551 23 164 552 65 164 553 95 164 554 65 165 555 16 165 556 34 165 557 66 166 558 96 166 559 44 166 560 24 167 561 69 167 562 96 167 563 69 168 564 13 168 565 31 168 566 70 169 567 97 169 568 41 169 569 25 170 570 73 170 571 97 170 572 73 171 573 10 171 574 28 171 575</p>
        </triangles>
      </mesh>
    </geometry>
    <geometry id="Cube_001-mesh" name="Cube.001">
      <mesh>
        <source id="Cube_001-mesh-positions">
          <float_array id="Cube_001-mesh-positions-array" count="936">1 1 1 1 1 -1 1 -1 1 1 -1 -1 -1 1 1 -1 1 -1 -1 -1 1 -1 -1 -1 1 14.33333 1 1 14.33333 -1 1 12.33333 1 1 12.33333 -1 -1 14.33333 1 -1 14.33333 -1 -1 12.33333 1 -1 12.33333 -1 0.4 12.33333 1 0.4 12.33333 -1 0.4 1 1 0.4 1 -1 -0.4 12.33333 1 -0.4 12.33333 -1 -0.4 1 1 -0.4 1 -1 0.8799999 -1 -3 0.8799999 -1 -1 0.8799999 1 -3 0.8799999 1 -1 1 -1 -3 1 -1 -1 1 1 -3 1 1 -1 0.8799999 12.33333 -3 0.8799999 12.33333 -1 0.8799999 14.33333 -3 0.8799999 14.33333 -1 1 12.33333 -3 1 12.33333 -1 1 14.33333 -3 1 14.33333 -1 -1 12.33333 -3 -1 12.33333 -1 -1 14.33333 -3 -1 14.33333 -1 -0.8799999 12.33333 -3 -0.8799999 12.33333 -1 -0.8799999 14.33333 -3 -0.8799999 14.33333 -1 -1 -1 -3 -1 -1 -1 -1 1 -3 -1 1 -1 -0.8799999 -1 -3 -0.8799999 -1 -1 -0.8799999 1 -3 -0.8799999 1 -1 0.9399999 0.01566666 1 0.9399999 0.01566666 1.666666 0.9401834 0.0153656 1 0.9401834 0.0153656 1.666666 0.9403597 0.01447409 1 0.9403597 0.01447409 1.666666 0.9405222 0.01302635 1 0.9405222 0.01302635 1.666666 0.9406646 0.011078 1 0.9406646 0.011078 1.666666 0.9407815 0.008703887 1 0.9407815 0.008703887 1.666666 0.9408684 0.005995333 1 0.9408684 0.005995333 1.666666 0.9409219 0.003056406 1 0.9409219 0.003056406 1.666666 0.94094 0 1 0.94094 0 1.666666 0.9409219 -0.003056406 1 0.9409219 -0.003056406 1.666666 0.9408684 -0.005995333 1 0.9408684 -0.005995333 1.666666 0.9407815 -0.008703887 1 0.9407815 -0.008703887 1.666666 0.9406646 -0.011078 1 0.9406646 -0.011078 1.666666 0.9405222 -0.01302635 1 0.9405222 -0.01302635 1.666666 0.9403597 -0.01447409 1 0.9403597 -0.01447409 1.666666 0.9401834 -0.0153656 1 0.9401834 -0.0153656 1.666666 0.9399999 -0.01566666 1 0.9399999 -0.01566666 1.666666 0.9398165 -0.0153656 1 0.9398165 -0.0153656 1.666666 0.9396402 -0.01447409 1 0.9396402 -0.01447409 1.666666 0.9394777 -0.01302629 1 0.9394777 -0.01302629 1.666666 0.9393353 -0.011078 1 0.9393353 -0.011078 1.666666 0.9392184 -0.008703887 1 0.9392184 -0.008703887 1.666666 0.9391315 -0.005995333 1 0.9391315 -0.005995333 1.666666 0.939078 -0.003056347 1 0.939078 -0.003056347 1.666666 0.9390599 0 1 0.9390599 0 1.666666 0.939078 0.003056406 1 0.939078 0.003056406 1.666666 0.9391315 0.005995333 1 0.9391315 0.005995333 1.666666 0.9392184 0.008703947 1 0.9392184 0.008703947 1.666666 0.9393353 0.011078 1 0.9393353 0.011078 1.666666 0.9394777 0.01302635 1 0.9394777 0.01302635 1.666666 0.9396402 0.01447409 1 0.9396402 0.01447409 1.666666 0.9398165 0.0153656 1 0.9398165 0.0153656 1.666666 0.9399999 13.349 1 0.9399999 13.349 1.666666 0.9401834 13.3487 1 0.9401834 13.3487 1.666666 0.9403597 13.34781 1 0.9403597 13.34781 1.666666 0.9405222 13.34636 1 0.9405222 13.34636 1.666666 0.9406646 13.34441 1 0.9406646 13.34441 1.666666 0.9407815 13.34204 1 0.9407815 13.34204 1.666666 0.9408684 13.33933 1 0.9408684 13.33933 1.666666 0.9409219 13.33639 1 0.9409219 13.33639 1.666666 0.94094 13.33333 1 0.94094 13.33333 1.666666 0.9409219 13.33028 1 0.9409219 13.33028 1.666666 0.9408684 13.32734 1 0.9408684 13.32734 1.666666 0.9407815 13.32463 1 0.9407815 13.32463 1.666666 0.9406646 13.32225 1 0.9406646 13.32225 1.666666 0.9405222 13.32031 1 0.9405222 13.32031 1.666666 0.9403597 13.31886 1 0.9403597 13.31886 1.666666 0.9401834 13.31797 1 0.9401834 13.31797 1.666666 0.9399999 13.31767 1 0.9399999 13.31767 1.666666 0.9398165 13.31797 1 0.9398165 13.31797 1.666666 0.9396402 13.31886 1 0.9396402 13.31886 1.666666 0.9394777 13.32031 1 0.9394777 13.32031 1.666666 0.9393353 13.32225 1 0.9393353 13.32225 1.666666 0.9392184 13.32463 1 0.9392184 13.32463 1.666666 0.9391315 13.32734 1 0.9391315 13.32734 1.666666 0.939078 13.33028 1 0.939078 13.33028 1.666666 0.9390599 13.33333 1 0.9390599 13.33333 1.666666 0.939078 13.33639 1 0.939078 13.33639 1.666666 0.9391315 13.33933 1 0.9391315 13.33933 1.666666 0.9392184 13.34204 1 0.9392184 13.34204 1.666666 0.9393353 13.34441 1 0.9393353 13.34441 1.666666 0.9394777 13.34636 1 0.9394777 13.34636 1.666666 0.9396402 13.34781 1 0.9396402 13.34781 1.666666 0.9398165 13.3487 1 0.9398165 13.3487 1.666666 -0.9399999 13.349 1 -0.9399999 13.349 1.666666 -0.9398165 13.3487 1 -0.9398165 13.3487 1.666666 -0.9396402 13.34781 1 -0.9396402 13.34781 1.666666 -0.9394777 13.34636 1 -0.9394777 13.34636 1.666666 -0.9393353 13.34441 1 -0.9393353 13.34441 1.666666 -0.9392184 13.34204 1 -0.9392184 13.34204 1.666666 -0.9391315 13.33933 1 -0.9391315 13.33933 1.666666 -0.939078 13.33639 1 -0.939078 13.33639 1.666666 -0.9390599 13.33333 1 -0.9390599 13.33333 1.666666 -0.939078 13.33028 1 -0.939078 13.33028 1.666666 -0.9391315 13.32734 1 -0.9391315 13.32734 1.666666 -0.9392184 13.32463 1 -0.9392184 13.32463 1.666666 -0.9393353 13.32225 1 -0.9393353 13.32225 1.666666 -0.9394777 13.32031 1 -0.9394777 13.32031 1.666666 -0.9396402 13.31886 1 -0.9396402 13.31886 1.666666 -0.9398165 13.31797 1 -0.9398165 13.31797 1.666666 -0.9399999 13.31767 1 -0.9399999 13.31767 1.666666 -0.9401834 13.31797 1 -0.9401834 13.31797 1.666666 -0.9403597 13.31886 1 -0.9403597 13.31886 1.666666 -0.9405222 13.32031 1 -0.9405222 13.32031 1.666666 -0.9406646 13.32225 1 -0.9406646 13.32225 1.666666 -0.9407815 13.32463 1 -0.9407815 13.32463 1.666666 -0.9408684 13.32734 1 -0.9408684 13.32734 1.666666 -0.9409219 13.33028 1 -0.9409219 13.33028 1.666666 -0.94094 13.33333 1 -0.94094 13.33333 1.666666 -0.9409219 13.33639 1 -0.9409219 13.33639 1.666666 -0.9408684 13.33933 1 -0.9408684 13.33933 1.666666 -0.9407815 13.34204 1 -0.9407815 13.34204 1.666666 -0.9406646 13.34441 1 -0.9406646 13.34441 1.666666 -0.9405222 13.34636 1 -0.9405222 13.34636 1.666666 -0.9403597 13.34781 1 -0.9403597 13.34781 1.666666 -0.9401834 13.3487 1 -0.9401834 13.3487 1.666666 -0.9399999 0.01566666 1 -0.9399999 0.01566666 1.666666 -0.9398165 0.0153656 1 -0.9398165 0.0153656 1.666666 -0.9396402 0.01447409 1 -0.9396402 0.01447409 1.666666 -0.9394777 0.01302635 1 -0.9394777 0.01302635 1.666666 -0.9393353 0.011078 1 -0.9393353 0.011078 1.666666 -0.9392184 0.008703887 1 -0.9392184 0.008703887 1.666666 -0.9391315 0.005995333 1 -0.9391315 0.005995333 1.666666 -0.939078 0.003056406 1 -0.939078 0.003056406 1.666666 -0.9390599 0 1 -0.9390599 0 1.666666 -0.939078 -0.003056406 1 -0.939078 -0.003056406 1.666666 -0.9391315 -0.005995333 1 -0.9391315 -0.005995333 1.666666 -0.9392184 -0.008703887 1 -0.9392184 -0.008703887 1.666666 -0.9393353 -0.011078 1 -0.9393353 -0.011078 1.666666 -0.9394777 -0.01302635 1 -0.9394777 -0.01302635 1.666666 -0.9396402 -0.01447409 1 -0.9396402 -0.01447409 1.666666 -0.9398165 -0.0153656 1 -0.9398165 -0.0153656 1.666666 -0.9399999 -0.01566666 1 -0.9399999 -0.01566666 1.666666 -0.9401834 -0.0153656 1 -0.9401834 -0.0153656 1.666666 -0.9403597 -0.01447409 1 -0.9403597 -0.01447409 1.666666 -0.9405222 -0.01302629 1 -0.9405222 -0.01302629 1.666666 -0.9406646 -0.011078 1 -0.9406646 -0.011078 1.666666 -0.9407815 -0.008703887 1 -0.9407815 -0.008703887 1.666666 -0.9408684 -0.005995333 1 -0.9408684 -0.005995333 1.666666 -0.9409219 -0.003056347 1 -0.9409219 -0.003056347 1.666666 -0.94094 0 1 -0.94094 0 1.666666 -0.9409219 0.003056406 1 -0.9409219 0.003056406 1.666666 -0.9408684 0.005995333 1 -0.9408684 0.005995333 1.666666 -0.9407815 0.008703947 1 -0.9407815 0.008703947 1.666666 -0.9406646 0.011078 1 -0.9406646 0.011078 1.666666 -0.9405222 0.01302635 1 -0.9405222 0.01302635 1.666666 -0.9403597 0.01447409 1 -0.9403597 0.01447409 1.666666 -0.9401834 0.0153656 1 -0.9401834 0.0153656 1.666666</float_array>
          <technique_common>
            <accessor source="#Cube_001-mesh-positions-array" count="312" stride="3">
              <param name="X" type="float"/>
              <param name="Y" type="float"/>
              <param name="Z" type="float"/>
            </accessor>
          </technique_common>
        </source>
        <source id="Cube_001-mesh-normals">
          <float_array id="Cube_001-mesh-normals-array" count="684">0 0 1 0 -1 0 -1 0 0 0 0 -1 1 0 0 0 1 0 0.8541384 0.5200458 0 0.9810004 0.194006 0 0.9937565 0.1115706 0 0.9973422 0.07286041 0 0.998789 0.04919922 0 0.9994858 0.03206825 0 0.9998346 0.01818889 0 0.9999825 0.005908846 0 0.9999825 -0.005908846 0 0.9998335 -0.01824975 0 0.9994879 -0.03200232 0 0.998789 -0.04919922 0 0.9973355 -0.07295143 0 0.9937566 -0.1115705 0 0.9810003 -0.1940062 0 0.8539122 -0.520417 0 -0.8539137 -0.5204147 0 -0.9810004 -0.1940056 0 -0.9937701 -0.1114493 0 -0.9973422 -0.0728603 0 -0.998789 -0.04919922 0 -0.9994858 -0.03206825 0 -0.9998347 -0.01818889 0 -0.9999823 -0.005967319 0 -0.999983 0.005850315 0 -0.9998346 0.01818889 0 -0.9994857 0.03206825 0 -0.998789 0.04919928 0 -0.9973422 0.07286047 0 -0.9937429 0.111692 0 -0.9810002 0.1940069 0 -0.8539094 0.5204217 0 0.8543912 0.5196306 0 0.9810072 0.1939718 0 0.9937559 0.1115766 0 0.9973422 0.07286018 0 0.9987887 0.04920709 0 0.9994857 0.03206974 0 0.9998347 0.01818728 0 0.9999825 0.005908608 0 0.9999825 -0.005908608 0 0.9998336 -0.01824808 0 0.9994878 -0.03200381 0 0.9987887 -0.04920709 0 0.9973356 -0.07295119 0 0.9937559 -0.1115766 0 0.9810072 -0.1939718 0 0.854166 -0.5200005 0 -0.854166 -0.5200005 0 -0.9810072 -0.1939718 0 -0.9937695 -0.1114553 0 -0.9973422 -0.07286018 0 -0.9987887 -0.04920709 0 -0.9994857 -0.03206974 0 -0.9998347 -0.01818728 0 -0.9999823 -0.00596708 0 -0.999983 0.005850076 0 -0.9998347 0.01818728 0 -0.9994857 0.03206974 0 -0.9987887 0.04920709 0 -0.9973422 0.07286018 0 -0.9937422 0.1116978 0 -0.9810072 0.1939718 0 -0.854166 0.5200005 0 0.854166 0.5200005 0 0.9937695 0.1114553 0 0.9999823 0.00596708 0 0.999983 -0.005850076 0 0.9998347 -0.01818728 0 0.9994857 -0.03206974 0 0.9973422 -0.07286018 0 0.9937422 -0.1116978 0 -0.8543912 -0.5196306 0 -0.9937559 -0.1115766 0 -0.9999825 -0.005908608 0 -0.9999825 0.005908608 0 -0.9998336 0.01824808 0 -0.9994878 0.03200381 0 -0.9973356 0.07295119 0 -0.9937559 0.1115766 0 0.853913 0.5204159 0 0.9937701 0.1114494 0 0.9999823 0.005967319 0 0.999983 -0.005850315 0 0.9998346 -0.01818889 0 0.9994858 -0.03206825 0 0.9973422 -0.07286036 0 0.9937429 -0.1116917 0 -0.8541391 -0.5200446 0 -0.9937566 -0.1115705 0 -0.9999825 -0.005908787 0 -0.9999825 0.005908846 0 -0.9998335 0.01824975 0 -0.9994878 0.03200232 0 -0.9973355 0.07295149 0 -0.9937565 0.1115708 0 0.853913 0.520416 0 0.9810004 0.194006 0 0.9937565 0.1115707 0 0.9973356 0.07295143 0 0.998789 0.04919928 0 0.9994879 0.03200238 0 0.9998335 0.01824975 0 0.9998346 -0.01818889 0 0.9994858 -0.03206825 0 0.998789 -0.04919928 0 0.9973422 -0.07286036 0 0.9937565 -0.1115705 0 0.9810003 -0.1940062 0 0.8541375 -0.5200471 0 -0.8539137 -0.5204148 0 -0.9810005 -0.1940056 0 -0.9937429 -0.1116917 0 -0.9973422 -0.07286036 0 -0.998789 -0.04919922 0 -0.9994857 -0.03206825 0 -0.9998347 -0.01818889 0 -0.999983 -0.005850315 0 -0.9999823 0.005967319 0 -0.9994858 0.03206825 0 -0.998789 0.04919934 0 -0.9973422 0.07286047 0 -0.9937702 0.1114497 0 -4.7465e-4 0 0.9999999 -1.02649e-4 0 1 0 0 1 -2.86434e-5 0 1 -1.44564e-5 0 1 1.10167e-4 0 1 -1.21632e-4 0 1 1.97966e-4 0 1 0 0 1 -1.79795e-4 0 1 0 0 1 0.001054286 0 0.9999995 -2.3733e-4 0 1 -4.47082e-4 0 1 5.72855e-5 0 1 1.44564e-5 0 1 2.75426e-5 0 1 -6.08148e-5 0 1 -0.9810003 0.194007 0 -0.8539094 0.5204218 0 0 0 -1 0 0 -1 0 0 -1 0 0 -1 8.67372e-6 0 -1 0 0 -1 0 0 -1 0 0 -1 0 0 -1 0 0 -1 0 0 -1 0 0 -1 -8.67371e-6 0 -1 0 0 -1 0 0 -1 0 0 -1 0.854166 0.5200006 0 0.9810071 0.1939719 0 0.9937559 0.1115766 0 0.9973356 0.07295119 0 0.9987887 0.04920709 0 0.9994878 0.03200381 0 0.9998336 0.01824808 0 0.9999825 0.005908608 0 0.9999825 -0.005908608 0 0.9998347 -0.01818728 0 0.9994857 -0.03206974 0 0.9987887 -0.04920709 0 0.9973422 -0.07286012 0 0.9937559 -0.1115766 0 0.9810071 -0.1939719 0 0.854391 -0.5196307 0 -0.854166 -0.5200006 0 -0.9810071 -0.1939719 0 -0.9937422 -0.1116978 0 -0.9973422 -0.07286012 0 -0.9987887 -0.04920709 0 -0.9994857 -0.03206974 0 -0.9998347 -0.01818728 0 -0.999983 -0.005850136 0 -0.9999823 0.00596708 0 -0.9998347 0.01818728 0 -0.9994857 0.03206974 0 -0.9987887 0.04920709 0 -0.9973422 0.07286012 0 -0.9937695 0.1114554 0 -0.9810071 0.1939719 0 -0.854166 0.5200006 0 0.9937422 0.1116978 0 0.9973422 0.07286012 0 0.9994857 0.03206974 0 0.9998347 0.01818728 0 0.999983 0.005850136 0 0.9999823 -0.00596708 0 0.9937695 -0.1114554 0 0.854166 -0.5200006 0 -0.9937559 -0.1115766 0 -0.9973356 -0.07295119 0 -0.9994878 -0.03200381 0 -0.9998336 -0.01824808 0 -0.9999825 -0.005908608 0 -0.9999825 0.005908608 0 -0.9937559 0.1115766 0 -0.854391 0.5196307 0 0.9937429 0.1116918 0 0.9973422 0.07286041 0 0.9994858 0.03206831 0 0.9998346 0.01818889 0 0.999983 0.005850315 0 0.9999823 -0.005967319 0 0.9937701 -0.1114494 0 0.8539122 -0.5204172 0 -0.9937566 -0.1115705 0 -0.9973356 -0.07295137 0 -0.9994878 -0.03200232 0 -0.9998335 -0.01824969 0 -0.9999826 0.005908846 0 -0.9937565 0.1115708 0 -0.8541348 0.5200518 0</float_array>
          <technique_common>
            <accessor source="#Cube_001-mesh-normals-array" count="228" stride="3">
              <param name="X" type="float"/>
              <param name="Y" type="float"/>
              <param name="Z" type="float"/>
            </accessor>
          </technique_common>
        </source>
        <source id="Cube_001-mesh-map-0">
          <float_array id="Cube_001-mesh-map-0-array" count="3480">0.875 0.5 0.625 0.75 0.625 0.5 0.625 0.75 0.375 1 0.375 0.75 0.625 0 0.375 0.25 0.375 0 0.375 0.5 0.125 0.75 0.125 0.5 0.625 0.5 0.375 0.75 0.375 0.5 0.625 0.25 0.375 0.5 0.375 0.25 0.875 0.5 0.625 0.75 0.625 0.5 0.625 0.75 0.375 1 0.375 0.75 0.625 0 0.375 0.25 0.375 0 0.375 0.5 0.125 0.75 0.125 0.5 0.625 0.5 0.375 0.75 0.375 0.5 0.625 0.25 0.375 0.5 0.375 0.25 0.875 0.5 0.625 0.75 0.625 0.5 0.625 0.75 0.375 1 0.375 0.75 0.625 0 0.375 0.25 0.375 0 0.375 0.5 0.125 0.75 0.125 0.5 0.625 0.5 0.375 0.75 0.375 0.5 0.625 0.25 0.375 0.5 0.375 0.25 0.625 0 0.375 0.25 0.375 0 0.625 0.25 0.375 0.5 0.375 0.25 0.625 0.5 0.375 0.75 0.375 0.5 0.625 0.75 0.375 1 0.375 0.75 0.375 0.5 0.125 0.75 0.125 0.5 0.875 0.5 0.625 0.75 0.625 0.5 0.625 0 0.375 0.25 0.375 0 0.625 0.25 0.375 0.5 0.375 0.25 0.625 0.5 0.375 0.75 0.375 0.5 0.625 0.75 0.375 1 0.375 0.75 0.375 0.5 0.125 0.75 0.125 0.5 0.875 0.5 0.625 0.75 0.625 0.5 0.625 0 0.375 0.25 0.375 0 0.625 0.25 0.375 0.5 0.375 0.25 0.625 0.5 0.375 0.75 0.375 0.5 0.625 0.75 0.375 1 0.375 0.75 0.375 0.5 0.125 0.75 0.125 0.5 0.875 0.5 0.625 0.75 0.625 0.5 0.625 0 0.375 0.25 0.375 0 0.625 0.25 0.375 0.5 0.375 0.25 0.625 0.5 0.375 0.75 0.375 0.5 0.625 0.75 0.375 1 0.375 0.75 0.375 0.5 0.125 0.75 0.125 0.5 0.875 0.5 0.625 0.75 0.625 0.5 1 1 0.96875 0.5 1 0.5 0.96875 1 0.9375 0.5 0.96875 0.5 0.9375 1 0.90625 0.5 0.9375 0.5 0.90625 1 0.875 0.5 0.90625 0.5 0.875 1 0.84375 0.5 0.875 0.5 0.84375 1 0.8125 0.5 0.84375 0.5 0.8125 1 0.78125 0.5 0.8125 0.5 0.78125 1 0.75 0.5 0.78125 0.5 0.75 1 0.71875 0.5 0.75 0.5 0.71875 1 0.6875 0.5 0.71875 0.5 0.6875 1 0.65625 0.5 0.6875 0.5 0.65625 1 0.625 0.5 0.65625 0.5 0.625 1 0.59375 0.5 0.625 0.5 0.59375 1 0.5625 0.5 0.59375 0.5 0.5625 1 0.53125 0.5 0.5625 0.5 0.53125 1 0.5 0.5 0.53125 0.5 0.5 1 0.46875 0.5 0.5 0.5 0.46875 1 0.4375 0.5 0.46875 0.5 0.4375 1 0.40625 0.5 0.4375 0.5 0.40625 1 0.375 0.5 0.40625 0.5 0.375 1 0.34375 0.5 0.375 0.5 0.34375 1 0.3125 0.5 0.34375 0.5 0.3125 1 0.28125 0.5 0.3125 0.5 0.28125 1 0.25 0.5 0.28125 0.5 0.25 1 0.21875 0.5 0.25 0.5 0.21875 1 0.1875 0.5 0.21875 0.5 0.1875 1 0.15625 0.5 0.1875 0.5 0.15625 1 0.125 0.5 0.15625 0.5 0.125 1 0.09375 0.5 0.125 0.5 0.09375 1 0.0625 0.5 0.09375 0.5 0.4197056 0.4197056 0.3833369 0.4495527 0.08029454 0.4197058 0.0625 1 0.03125 0.5 0.0625 0.5 0.03125 1 0 0.5 0.03125 0.5 0.6166634 0.4495529 0.6581563 0.4717312 0.8833369 0.4495527 1 1 0.96875 0.5 1 0.5 0.96875 1 0.9375 0.5 0.96875 0.5 0.9375 1 0.90625 0.5 0.9375 0.5 0.90625 1 0.875 0.5 0.90625 0.5 0.875 1 0.84375 0.5 0.875 0.5 0.84375 1 0.8125 0.5 0.84375 0.5 0.8125 1 0.78125 0.5 0.8125 0.5 0.78125 1 0.75 0.5 0.78125 0.5 0.75 1 0.71875 0.5 0.75 0.5 0.71875 1 0.6875 0.5 0.71875 0.5 0.6875 1 0.65625 0.5 0.6875 0.5 0.65625 1 0.625 0.5 0.65625 0.5 0.625 1 0.59375 0.5 0.625 0.5 0.59375 1 0.5625 0.5 0.59375 0.5 0.5625 1 0.53125 0.5 0.5625 0.5 0.53125 1 0.5 0.5 0.53125 0.5 0.5 1 0.46875 0.5 0.5 0.5 0.46875 1 0.4375 0.5 0.46875 0.5 0.4375 1 0.40625 0.5 0.4375 0.5 0.40625 1 0.375 0.5 0.40625 0.5 0.375 1 0.34375 0.5 0.375 0.5 0.34375 1 0.3125 0.5 0.34375 0.5 0.3125 1 0.28125 0.5 0.3125 0.5 0.28125 1 0.25 0.5 0.28125 0.5 0.25 1 0.21875 0.5 0.25 0.5 0.21875 1 0.1875 0.5 0.21875 0.5 0.1875 1 0.15625 0.5 0.1875 0.5 0.15625 1 0.125 0.5 0.15625 0.5 0.125 1 0.09375 0.5 0.125 0.5 0.09375 1 0.0625 0.5 0.09375 0.5 0.4197056 0.4197056 0.3833369 0.4495527 0.08029454 0.4197058 0.0625 1 0.03125 0.5 0.0625 0.5 0.03125 1 0 0.5 0.03125 0.5 0.6166634 0.4495529 0.6581563 0.4717312 0.8833369 0.4495527 1 1 0.96875 0.5 1 0.5 0.96875 1 0.9375 0.5 0.96875 0.5 0.9375 1 0.90625 0.5 0.9375 0.5 0.90625 1 0.875 0.5 0.90625 0.5 0.875 1 0.84375 0.5 0.875 0.5 0.84375 1 0.8125 0.5 0.84375 0.5 0.8125 1 0.78125 0.5 0.8125 0.5 0.78125 1 0.75 0.5 0.78125 0.5 0.75 1 0.71875 0.5 0.75 0.5 0.71875 1 0.6875 0.5 0.71875 0.5 0.6875 1 0.65625 0.5 0.6875 0.5 0.65625 1 0.625 0.5 0.65625 0.5 0.625 1 0.59375 0.5 0.625 0.5 0.59375 1 0.5625 0.5 0.59375 0.5 0.5625 1 0.53125 0.5 0.5625 0.5 0.53125 1 0.5 0.5 0.53125 0.5 0.5 1 0.46875 0.5 0.5 0.5 0.46875 1 0.4375 0.5 0.46875 0.5 0.4375 1 0.40625 0.5 0.4375 0.5 0.40625 1 0.375 0.5 0.40625 0.5 0.375 1 0.34375 0.5 0.375 0.5 0.34375 1 0.3125 0.5 0.34375 0.5 0.3125 1 0.28125 0.5 0.3125 0.5 0.28125 1 0.25 0.5 0.28125 0.5 0.25 1 0.21875 0.5 0.25 0.5 0.21875 1 0.1875 0.5 0.21875 0.5 0.1875 1 0.15625 0.5 0.1875 0.5 0.15625 1 0.125 0.5 0.15625 0.5 0.125 1 0.09375 0.5 0.125 0.5 0.09375 1 0.0625 0.5 0.09375 0.5 0.4197056 0.4197056 0.3833369 0.4495527 0.08029454 0.4197058 0.0625 1 0.03125 0.5 0.0625 0.5 0.03125 1 0 0.5 0.03125 0.5 0.6166634 0.4495529 0.6581563 0.4717312 0.8833369 0.4495527 1 1 0.96875 0.5 1 0.5 0.96875 1 0.9375 0.5 0.96875 0.5 0.9375 1 0.90625 0.5 0.9375 0.5 0.90625 1 0.875 0.5 0.90625 0.5 0.875 1 0.84375 0.5 0.875 0.5 0.84375 1 0.8125 0.5 0.84375 0.5 0.8125 1 0.78125 0.5 0.8125 0.5 0.78125 1 0.75 0.5 0.78125 0.5 0.75 1 0.71875 0.5 0.75 0.5 0.71875 1 0.6875 0.5 0.71875 0.5 0.6875 1 0.65625 0.5 0.6875 0.5 0.65625 1 0.625 0.5 0.65625 0.5 0.625 1 0.59375 0.5 0.625 0.5 0.59375 1 0.5625 0.5 0.59375 0.5 0.5625 1 0.53125 0.5 0.5625 0.5 0.53125 1 0.5 0.5 0.53125 0.5 0.5 1 0.46875 0.5 0.5 0.5 0.46875 1 0.4375 0.5 0.46875 0.5 0.4375 1 0.40625 0.5 0.4375 0.5 0.40625 1 0.375 0.5 0.40625 0.5 0.375 1 0.34375 0.5 0.375 0.5 0.34375 1 0.3125 0.5 0.34375 0.5 0.3125 1 0.28125 0.5 0.3125 0.5 0.28125 1 0.25 0.5 0.28125 0.5 0.25 1 0.21875 0.5 0.25 0.5 0.21875 1 0.1875 0.5 0.21875 0.5 0.1875 1 0.15625 0.5 0.1875 0.5 0.15625 1 0.125 0.5 0.15625 0.5 0.125 1 0.09375 0.5 0.125 0.5 0.09375 1 0.0625 0.5 0.09375 0.5 0.4197056 0.4197056 0.3833369 0.4495527 0.08029454 0.4197058 0.0625 1 0.03125 0.5 0.0625 0.5 0.03125 1 0 0.5 0.03125 0.5 0.6166634 0.4495529 0.6581563 0.4717312 0.8833369 0.4495527 0.875 0.5 0.875 0.75 0.625 0.75 0.625 0.75 0.625 1 0.375 1 0.625 0 0.625 0.25 0.375 0.25 0.375 0.5 0.375 0.75 0.125 0.75 0.625 0.5 0.625 0.75 0.375 0.75 0.625 0.25 0.625 0.5 0.375 0.5 0.875 0.5 0.875 0.75 0.625 0.75 0.625 0.75 0.625 1 0.375 1 0.625 0 0.625 0.25 0.375 0.25 0.375 0.5 0.375 0.75 0.125 0.75 0.625 0.5 0.625 0.75 0.375 0.75 0.625 0.25 0.625 0.5 0.375 0.5 0.875 0.5 0.875 0.75 0.625 0.75 0.625 0.75 0.625 1 0.375 1 0.625 0 0.625 0.25 0.375 0.25 0.375 0.5 0.375 0.75 0.125 0.75 0.625 0.5 0.625 0.75 0.375 0.75 0.625 0.25 0.625 0.5 0.375 0.5 0.625 0 0.625 0.25 0.375 0.25 0.625 0.25 0.625 0.5 0.375 0.5 0.625 0.5 0.625 0.75 0.375 0.75 0.625 0.75 0.625 1 0.375 1 0.375 0.5 0.375 0.75 0.125 0.75 0.875 0.5 0.875 0.75 0.625 0.75 0.625 0 0.625 0.25 0.375 0.25 0.625 0.25 0.625 0.5 0.375 0.5 0.625 0.5 0.625 0.75 0.375 0.75 0.625 0.75 0.625 1 0.375 1 0.375 0.5 0.375 0.75 0.125 0.75 0.875 0.5 0.875 0.75 0.625 0.75 0.625 0 0.625 0.25 0.375 0.25 0.625 0.25 0.625 0.5 0.375 0.5 0.625 0.5 0.625 0.75 0.375 0.75 0.625 0.75 0.625 1 0.375 1 0.375 0.5 0.375 0.75 0.125 0.75 0.875 0.5 0.875 0.75 0.625 0.75 0.625 0 0.625 0.25 0.375 0.25 0.625 0.25 0.625 0.5 0.375 0.5 0.625 0.5 0.625 0.75 0.375 0.75 0.625 0.75 0.625 1 0.375 1 0.375 0.5 0.375 0.75 0.125 0.75 0.875 0.5 0.875 0.75 0.625 0.75 1 1 0.96875 1 0.96875 0.5 0.96875 1 0.9375 1 0.9375 0.5 0.9375 1 0.90625 1 0.90625 0.5 0.90625 1 0.875 1 0.875 0.5 0.875 1 0.84375 1 0.84375 0.5 0.84375 1 0.8125 1 0.8125 0.5 0.8125 1 0.78125 1 0.78125 0.5 0.78125 1 0.75 1 0.75 0.5 0.75 1 0.71875 1 0.71875 0.5 0.71875 1 0.6875 1 0.6875 0.5 0.6875 1 0.65625 1 0.65625 0.5 0.65625 1 0.625 1 0.625 0.5 0.625 1 0.59375 1 0.59375 0.5 0.59375 1 0.5625 1 0.5625 0.5 0.5625 1 0.53125 1 0.53125 0.5 0.53125 1 0.5 1 0.5 0.5 0.5 1 0.46875 1 0.46875 0.5 0.46875 1 0.4375 1 0.4375 0.5 0.4375 1 0.40625 1 0.40625 0.5 0.40625 1 0.375 1 0.375 0.5 0.375 1 0.34375 1 0.34375 0.5 0.34375 1 0.3125 1 0.3125 0.5 0.3125 1 0.28125 1 0.28125 0.5 0.28125 1 0.25 1 0.25 0.5 0.25 1 0.21875 1 0.21875 0.5 0.21875 1 0.1875 1 0.1875 0.5 0.1875 1 0.15625 1 0.15625 0.5 0.15625 1 0.125 1 0.125 0.5 0.125 1 0.09375 1 0.09375 0.5 0.09375 1 0.0625 1 0.0625 0.5 0.341844 0.4717311 0.2968217 0.4853885 0.1581563 0.4717312 0.2968217 0.4853885 0.25 0.49 0.2031787 0.4853885 0.1581563 0.4717312 0.2968217 0.4853885 0.2031787 0.4853885 0.1581563 0.4717312 0.1166634 0.4495529 0.341844 0.4717311 0.1166634 0.4495529 0.08029454 0.4197058 0.3833369 0.4495527 0.341844 0.4717311 0.1166634 0.4495529 0.3833369 0.4495527 0.08029454 0.4197058 0.05044746 0.3833371 0.4197056 0.4197056 0.05044746 0.3833371 0.02826899 0.3418443 0.4495527 0.3833369 0.4197056 0.4197056 0.05044746 0.3833371 0.4495527 0.3833369 0.02826899 0.3418443 0.01461154 0.2968219 0.4853885 0.2968217 0.01461154 0.2968219 0.00999999 0.2500002 0.49 0.25 0.00999999 0.2500002 0.01461148 0.2031785 0.4853885 0.2031783 0.01461148 0.2031785 0.02826881 0.1581561 0.4717311 0.158156 0.02826881 0.1581561 0.05044716 0.1166633 0.4717311 0.158156 0.05044716 0.1166633 0.08029425 0.08029443 0.4495527 0.1166631 0.4717311 0.158156 0.05044716 0.1166633 0.4495527 0.1166631 0.08029425 0.08029443 0.116663 0.05044734 0.4197056 0.08029437 0.116663 0.05044734 0.1581559 0.02826893 0.3833369 0.05044728 0.4197056 0.08029437 0.116663 0.05044734 0.3833369 0.05044728 0.1581559 0.02826893 0.2031782 0.01461154 0.341844 0.02826887 0.2031782 0.01461154 0.2499999 0.00999999 0.2968216 0.01461148 0.341844 0.02826887 0.2031782 0.01461154 0.2968216 0.01461148 0.341844 0.02826887 0.3833369 0.05044728 0.1581559 0.02826893 0.4197056 0.08029437 0.4495527 0.1166631 0.08029425 0.08029443 0.4717311 0.158156 0.4853885 0.2031783 0.01461148 0.2031785 0.4853885 0.2031783 0.49 0.25 0.00999999 0.2500002 0.49 0.25 0.4853885 0.2968217 0.01461154 0.2968219 0.4853885 0.2968217 0.4717311 0.341844 0.02826899 0.3418443 0.4717311 0.341844 0.4495527 0.3833369 0.02826899 0.3418443 0.0625 1 0.03125 1 0.03125 0.5 0.03125 1 0 1 0 0.5 0.7031787 0.4853885 0.75 0.49 0.7968217 0.4853885 0.7968217 0.4853885 0.841844 0.4717311 0.7031787 0.4853885 0.841844 0.4717311 0.8833369 0.4495527 0.6581563 0.4717312 0.7031787 0.4853885 0.841844 0.4717311 0.6581563 0.4717312 0.8833369 0.4495527 0.9197056 0.4197056 0.5802946 0.4197058 0.9197056 0.4197056 0.9495527 0.3833369 0.5504475 0.3833371 0.9495527 0.3833369 0.9717311 0.341844 0.5504475 0.3833371 0.9717311 0.341844 0.9853885 0.2968217 0.5282691 0.3418443 0.5504475 0.3833371 0.9717311 0.341844 0.5282691 0.3418443 0.9853885 0.2968217 0.99 0.25 0.51 0.2500002 0.99 0.25 0.9853885 0.2031783 0.5146115 0.2031785 0.9853885 0.2031783 0.9717311 0.158156 0.5146115 0.2031785 0.9717311 0.158156 0.9495527 0.1166631 0.5282688 0.1581561 0.5146115 0.2031785 0.9717311 0.158156 0.5282688 0.1581561 0.9495527 0.1166631 0.9197056 0.08029437 0.5802943 0.08029443 0.9197056 0.08029437 0.8833369 0.05044728 0.616663 0.05044734 0.8833369 0.05044728 0.841844 0.02826887 0.616663 0.05044734 0.841844 0.02826887 0.7968216 0.01461148 0.6581559 0.02826893 0.616663 0.05044734 0.841844 0.02826887 0.6581559 0.02826893 0.7968216 0.01461148 0.75 0.00999999 0.7031782 0.01461154 0.7031782 0.01461154 0.6581559 0.02826893 0.7968216 0.01461148 0.616663 0.05044734 0.5802943 0.08029443 0.9197056 0.08029437 0.5802943 0.08029443 0.5504472 0.1166633 0.9495527 0.1166631 0.5504472 0.1166633 0.5282688 0.1581561 0.9495527 0.1166631 0.5146115 0.2031785 0.51 0.2500002 0.99 0.25 0.51 0.2500002 0.5146116 0.2968219 0.9853885 0.2968217 0.5146116 0.2968219 0.5282691 0.3418443 0.9853885 0.2968217 0.5504475 0.3833371 0.5802946 0.4197058 0.9197056 0.4197056 0.5802946 0.4197058 0.6166634 0.4495529 0.8833369 0.4495527 1 1 0.96875 1 0.96875 0.5 0.96875 1 0.9375 1 0.9375 0.5 0.9375 1 0.90625 1 0.90625 0.5 0.90625 1 0.875 1 0.875 0.5 0.875 1 0.84375 1 0.84375 0.5 0.84375 1 0.8125 1 0.8125 0.5 0.8125 1 0.78125 1 0.78125 0.5 0.78125 1 0.75 1 0.75 0.5 0.75 1 0.71875 1 0.71875 0.5 0.71875 1 0.6875 1 0.6875 0.5 0.6875 1 0.65625 1 0.65625 0.5 0.65625 1 0.625 1 0.625 0.5 0.625 1 0.59375 1 0.59375 0.5 0.59375 1 0.5625 1 0.5625 0.5 0.5625 1 0.53125 1 0.53125 0.5 0.53125 1 0.5 1 0.5 0.5 0.5 1 0.46875 1 0.46875 0.5 0.46875 1 0.4375 1 0.4375 0.5 0.4375 1 0.40625 1 0.40625 0.5 0.40625 1 0.375 1 0.375 0.5 0.375 1 0.34375 1 0.34375 0.5 0.34375 1 0.3125 1 0.3125 0.5 0.3125 1 0.28125 1 0.28125 0.5 0.28125 1 0.25 1 0.25 0.5 0.25 1 0.21875 1 0.21875 0.5 0.21875 1 0.1875 1 0.1875 0.5 0.1875 1 0.15625 1 0.15625 0.5 0.15625 1 0.125 1 0.125 0.5 0.125 1 0.09375 1 0.09375 0.5 0.09375 1 0.0625 1 0.0625 0.5 0.341844 0.4717311 0.2968217 0.4853885 0.2031787 0.4853885 0.2968217 0.4853885 0.25 0.49 0.2031787 0.4853885 0.2031787 0.4853885 0.1581563 0.4717312 0.341844 0.4717311 0.1581563 0.4717312 0.1166634 0.4495529 0.341844 0.4717311 0.1166634 0.4495529 0.08029454 0.4197058 0.3833369 0.4495527 0.341844 0.4717311 0.1166634 0.4495529 0.3833369 0.4495527 0.08029454 0.4197058 0.05044746 0.3833371 0.4197056 0.4197056 0.05044746 0.3833371 0.02826899 0.3418443 0.4495527 0.3833369 0.4197056 0.4197056 0.05044746 0.3833371 0.4495527 0.3833369 0.02826899 0.3418443 0.01461154 0.2968219 0.4853885 0.2968217 0.01461154 0.2968219 0.00999999 0.2500002 0.49 0.25 0.00999999 0.2500002 0.01461148 0.2031785 0.4853885 0.2031783 0.01461148 0.2031785 0.02826881 0.1581561 0.4717311 0.158156 0.02826881 0.1581561 0.05044716 0.1166633 0.4717311 0.158156 0.05044716 0.1166633 0.08029425 0.08029443 0.4495527 0.1166631 0.4717311 0.158156 0.05044716 0.1166633 0.4495527 0.1166631 0.08029425 0.08029443 0.116663 0.05044734 0.4197056 0.08029437 0.116663 0.05044734 0.1581559 0.02826893 0.3833369 0.05044728 0.4197056 0.08029437 0.116663 0.05044734 0.3833369 0.05044728 0.1581559 0.02826893 0.2031782 0.01461154 0.341844 0.02826887 0.2031782 0.01461154 0.2499999 0.00999999 0.2968216 0.01461148 0.341844 0.02826887 0.2031782 0.01461154 0.2968216 0.01461148 0.341844 0.02826887 0.3833369 0.05044728 0.1581559 0.02826893 0.4197056 0.08029437 0.4495527 0.1166631 0.08029425 0.08029443 0.4717311 0.158156 0.4853885 0.2031783 0.01461148 0.2031785 0.4853885 0.2031783 0.49 0.25 0.00999999 0.2500002 0.49 0.25 0.4853885 0.2968217 0.01461154 0.2968219 0.4853885 0.2968217 0.4717311 0.341844 0.02826899 0.3418443 0.4717311 0.341844 0.4495527 0.3833369 0.02826899 0.3418443 0.0625 1 0.03125 1 0.03125 0.5 0.03125 1 0 1 0 0.5 0.7031787 0.4853885 0.75 0.49 0.7968217 0.4853885 0.7968217 0.4853885 0.841844 0.4717311 0.7031787 0.4853885 0.841844 0.4717311 0.8833369 0.4495527 0.6581563 0.4717312 0.7031787 0.4853885 0.841844 0.4717311 0.6581563 0.4717312 0.8833369 0.4495527 0.9197056 0.4197056 0.5802946 0.4197058 0.9197056 0.4197056 0.9495527 0.3833369 0.5504475 0.3833371 0.9495527 0.3833369 0.9717311 0.341844 0.5504475 0.3833371 0.9717311 0.341844 0.9853885 0.2968217 0.5282691 0.3418443 0.5504475 0.3833371 0.9717311 0.341844 0.5282691 0.3418443 0.9853885 0.2968217 0.99 0.25 0.51 0.2500002 0.99 0.25 0.9853885 0.2031783 0.5146115 0.2031785 0.9853885 0.2031783 0.9717311 0.158156 0.5146115 0.2031785 0.9717311 0.158156 0.9495527 0.1166631 0.5282688 0.1581561 0.5146115 0.2031785 0.9717311 0.158156 0.5282688 0.1581561 0.9495527 0.1166631 0.9197056 0.08029437 0.5802943 0.08029443 0.9197056 0.08029437 0.8833369 0.05044728 0.616663 0.05044734 0.8833369 0.05044728 0.841844 0.02826887 0.616663 0.05044734 0.841844 0.02826887 0.7968216 0.01461148 0.6581559 0.02826893 0.616663 0.05044734 0.841844 0.02826887 0.6581559 0.02826893 0.7968216 0.01461148 0.75 0.00999999 0.7031782 0.01461154 0.7031782 0.01461154 0.6581559 0.02826893 0.7968216 0.01461148 0.616663 0.05044734 0.5802943 0.08029443 0.9197056 0.08029437 0.5802943 0.08029443 0.5504472 0.1166633 0.9495527 0.1166631 0.5504472 0.1166633 0.5282688 0.1581561 0.9495527 0.1166631 0.5146115 0.2031785 0.51 0.2500002 0.99 0.25 0.51 0.2500002 0.5146116 0.2968219 0.9853885 0.2968217 0.5146116 0.2968219 0.5282691 0.3418443 0.9853885 0.2968217 0.5504475 0.3833371 0.5802946 0.4197058 0.9197056 0.4197056 0.5802946 0.4197058 0.6166634 0.4495529 0.8833369 0.4495527 1 1 0.96875 1 0.96875 0.5 0.96875 1 0.9375 1 0.9375 0.5 0.9375 1 0.90625 1 0.90625 0.5 0.90625 1 0.875 1 0.875 0.5 0.875 1 0.84375 1 0.84375 0.5 0.84375 1 0.8125 1 0.8125 0.5 0.8125 1 0.78125 1 0.78125 0.5 0.78125 1 0.75 1 0.75 0.5 0.75 1 0.71875 1 0.71875 0.5 0.71875 1 0.6875 1 0.6875 0.5 0.6875 1 0.65625 1 0.65625 0.5 0.65625 1 0.625 1 0.625 0.5 0.625 1 0.59375 1 0.59375 0.5 0.59375 1 0.5625 1 0.5625 0.5 0.5625 1 0.53125 1 0.53125 0.5 0.53125 1 0.5 1 0.5 0.5 0.5 1 0.46875 1 0.46875 0.5 0.46875 1 0.4375 1 0.4375 0.5 0.4375 1 0.40625 1 0.40625 0.5 0.40625 1 0.375 1 0.375 0.5 0.375 1 0.34375 1 0.34375 0.5 0.34375 1 0.3125 1 0.3125 0.5 0.3125 1 0.28125 1 0.28125 0.5 0.28125 1 0.25 1 0.25 0.5 0.25 1 0.21875 1 0.21875 0.5 0.21875 1 0.1875 1 0.1875 0.5 0.1875 1 0.15625 1 0.15625 0.5 0.15625 1 0.125 1 0.125 0.5 0.125 1 0.09375 1 0.09375 0.5 0.09375 1 0.0625 1 0.0625 0.5 0.341844 0.4717311 0.2968217 0.4853885 0.2031787 0.4853885 0.2968217 0.4853885 0.25 0.49 0.2031787 0.4853885 0.2031787 0.4853885 0.1581563 0.4717312 0.341844 0.4717311 0.1581563 0.4717312 0.1166634 0.4495529 0.341844 0.4717311 0.1166634 0.4495529 0.08029454 0.4197058 0.3833369 0.4495527 0.341844 0.4717311 0.1166634 0.4495529 0.3833369 0.4495527 0.08029454 0.4197058 0.05044746 0.3833371 0.4197056 0.4197056 0.05044746 0.3833371 0.02826899 0.3418443 0.4495527 0.3833369 0.4197056 0.4197056 0.05044746 0.3833371 0.4495527 0.3833369 0.02826899 0.3418443 0.01461154 0.2968219 0.4853885 0.2968217 0.01461154 0.2968219 0.00999999 0.2500002 0.49 0.25 0.00999999 0.2500002 0.01461148 0.2031785 0.4853885 0.2031783 0.01461148 0.2031785 0.02826881 0.1581561 0.4717311 0.158156 0.02826881 0.1581561 0.05044716 0.1166633 0.4717311 0.158156 0.05044716 0.1166633 0.08029425 0.08029443 0.4495527 0.1166631 0.4717311 0.158156 0.05044716 0.1166633 0.4495527 0.1166631 0.08029425 0.08029443 0.116663 0.05044734 0.4197056 0.08029437 0.116663 0.05044734 0.1581559 0.02826893 0.3833369 0.05044728 0.4197056 0.08029437 0.116663 0.05044734 0.3833369 0.05044728 0.1581559 0.02826893 0.2031782 0.01461154 0.341844 0.02826887 0.2031782 0.01461154 0.2499999 0.00999999 0.2968216 0.01461148 0.341844 0.02826887 0.2031782 0.01461154 0.2968216 0.01461148 0.341844 0.02826887 0.3833369 0.05044728 0.1581559 0.02826893 0.4197056 0.08029437 0.4495527 0.1166631 0.08029425 0.08029443 0.4717311 0.158156 0.4853885 0.2031783 0.01461148 0.2031785 0.4853885 0.2031783 0.49 0.25 0.00999999 0.2500002 0.49 0.25 0.4853885 0.2968217 0.01461154 0.2968219 0.4853885 0.2968217 0.4717311 0.341844 0.02826899 0.3418443 0.4717311 0.341844 0.4495527 0.3833369 0.02826899 0.3418443 0.0625 1 0.03125 1 0.03125 0.5 0.03125 1 0 1 0 0.5 0.7031787 0.4853885 0.75 0.49 0.7968217 0.4853885 0.7968217 0.4853885 0.841844 0.4717311 0.7031787 0.4853885 0.841844 0.4717311 0.8833369 0.4495527 0.6581563 0.4717312 0.7031787 0.4853885 0.841844 0.4717311 0.6581563 0.4717312 0.8833369 0.4495527 0.9197056 0.4197056 0.5802946 0.4197058 0.9197056 0.4197056 0.9495527 0.3833369 0.5504475 0.3833371 0.9495527 0.3833369 0.9717311 0.341844 0.5504475 0.3833371 0.9717311 0.341844 0.9853885 0.2968217 0.5282691 0.3418443 0.5504475 0.3833371 0.9717311 0.341844 0.5282691 0.3418443 0.9853885 0.2968217 0.99 0.25 0.51 0.2500002 0.99 0.25 0.9853885 0.2031783 0.5146115 0.2031785 0.9853885 0.2031783 0.9717311 0.158156 0.5146115 0.2031785 0.9717311 0.158156 0.9495527 0.1166631 0.5282688 0.1581561 0.5146115 0.2031785 0.9717311 0.158156 0.5282688 0.1581561 0.9495527 0.1166631 0.9197056 0.08029437 0.5802943 0.08029443 0.9197056 0.08029437 0.8833369 0.05044728 0.616663 0.05044734 0.8833369 0.05044728 0.841844 0.02826887 0.616663 0.05044734 0.841844 0.02826887 0.7968216 0.01461148 0.6581559 0.02826893 0.616663 0.05044734 0.841844 0.02826887 0.6581559 0.02826893 0.7968216 0.01461148 0.75 0.00999999 0.7031782 0.01461154 0.7031782 0.01461154 0.6581559 0.02826893 0.7968216 0.01461148 0.616663 0.05044734 0.5802943 0.08029443 0.9197056 0.08029437 0.5802943 0.08029443 0.5504472 0.1166633 0.9495527 0.1166631 0.5504472 0.1166633 0.5282688 0.1581561 0.9495527 0.1166631 0.5146115 0.2031785 0.51 0.2500002 0.99 0.25 0.51 0.2500002 0.5146116 0.2968219 0.9853885 0.2968217 0.5146116 0.2968219 0.5282691 0.3418443 0.9853885 0.2968217 0.5504475 0.3833371 0.5802946 0.4197058 0.9197056 0.4197056 0.5802946 0.4197058 0.6166634 0.4495529 0.8833369 0.4495527 1 1 0.96875 1 0.96875 0.5 0.96875 1 0.9375 1 0.9375 0.5 0.9375 1 0.90625 1 0.90625 0.5 0.90625 1 0.875 1 0.875 0.5 0.875 1 0.84375 1 0.84375 0.5 0.84375 1 0.8125 1 0.8125 0.5 0.8125 1 0.78125 1 0.78125 0.5 0.78125 1 0.75 1 0.75 0.5 0.75 1 0.71875 1 0.71875 0.5 0.71875 1 0.6875 1 0.6875 0.5 0.6875 1 0.65625 1 0.65625 0.5 0.65625 1 0.625 1 0.625 0.5 0.625 1 0.59375 1 0.59375 0.5 0.59375 1 0.5625 1 0.5625 0.5 0.5625 1 0.53125 1 0.53125 0.5 0.53125 1 0.5 1 0.5 0.5 0.5 1 0.46875 1 0.46875 0.5 0.46875 1 0.4375 1 0.4375 0.5 0.4375 1 0.40625 1 0.40625 0.5 0.40625 1 0.375 1 0.375 0.5 0.375 1 0.34375 1 0.34375 0.5 0.34375 1 0.3125 1 0.3125 0.5 0.3125 1 0.28125 1 0.28125 0.5 0.28125 1 0.25 1 0.25 0.5 0.25 1 0.21875 1 0.21875 0.5 0.21875 1 0.1875 1 0.1875 0.5 0.1875 1 0.15625 1 0.15625 0.5 0.15625 1 0.125 1 0.125 0.5 0.125 1 0.09375 1 0.09375 0.5 0.09375 1 0.0625 1 0.0625 0.5 0.341844 0.4717311 0.2968217 0.4853885 0.1581563 0.4717312 0.2968217 0.4853885 0.25 0.49 0.2031787 0.4853885 0.1581563 0.4717312 0.2968217 0.4853885 0.2031787 0.4853885 0.1581563 0.4717312 0.1166634 0.4495529 0.341844 0.4717311 0.1166634 0.4495529 0.08029454 0.4197058 0.3833369 0.4495527 0.341844 0.4717311 0.1166634 0.4495529 0.3833369 0.4495527 0.08029454 0.4197058 0.05044746 0.3833371 0.4197056 0.4197056 0.05044746 0.3833371 0.02826899 0.3418443 0.4495527 0.3833369 0.4197056 0.4197056 0.05044746 0.3833371 0.4495527 0.3833369 0.02826899 0.3418443 0.01461154 0.2968219 0.4853885 0.2968217 0.01461154 0.2968219 0.00999999 0.2500002 0.49 0.25 0.00999999 0.2500002 0.01461148 0.2031785 0.4853885 0.2031783 0.01461148 0.2031785 0.02826881 0.1581561 0.4717311 0.158156 0.02826881 0.1581561 0.05044716 0.1166633 0.4717311 0.158156 0.05044716 0.1166633 0.08029425 0.08029443 0.4495527 0.1166631 0.4717311 0.158156 0.05044716 0.1166633 0.4495527 0.1166631 0.08029425 0.08029443 0.116663 0.05044734 0.4197056 0.08029437 0.116663 0.05044734 0.1581559 0.02826893 0.3833369 0.05044728 0.4197056 0.08029437 0.116663 0.05044734 0.3833369 0.05044728 0.1581559 0.02826893 0.2031782 0.01461154 0.341844 0.02826887 0.2031782 0.01461154 0.2499999 0.00999999 0.2968216 0.01461148 0.341844 0.02826887 0.2031782 0.01461154 0.2968216 0.01461148 0.341844 0.02826887 0.3833369 0.05044728 0.1581559 0.02826893 0.4197056 0.08029437 0.4495527 0.1166631 0.08029425 0.08029443 0.4717311 0.158156 0.4853885 0.2031783 0.01461148 0.2031785 0.4853885 0.2031783 0.49 0.25 0.00999999 0.2500002 0.49 0.25 0.4853885 0.2968217 0.01461154 0.2968219 0.4853885 0.2968217 0.4717311 0.341844 0.02826899 0.3418443 0.4717311 0.341844 0.4495527 0.3833369 0.02826899 0.3418443 0.0625 1 0.03125 1 0.03125 0.5 0.03125 1 0 1 0 0.5 0.7031787 0.4853885 0.75 0.49 0.7968217 0.4853885 0.7968217 0.4853885 0.841844 0.4717311 0.7031787 0.4853885 0.841844 0.4717311 0.8833369 0.4495527 0.6581563 0.4717312 0.7031787 0.4853885 0.841844 0.4717311 0.6581563 0.4717312 0.8833369 0.4495527 0.9197056 0.4197056 0.5802946 0.4197058 0.9197056 0.4197056 0.9495527 0.3833369 0.5504475 0.3833371 0.9495527 0.3833369 0.9717311 0.341844 0.5504475 0.3833371 0.9717311 0.341844 0.9853885 0.2968217 0.5282691 0.3418443 0.5504475 0.3833371 0.9717311 0.341844 0.5282691 0.3418443 0.9853885 0.2968217 0.99 0.25 0.51 0.2500002 0.99 0.25 0.9853885 0.2031783 0.5146115 0.2031785 0.9853885 0.2031783 0.9717311 0.158156 0.5146115 0.2031785 0.9717311 0.158156 0.9495527 0.1166631 0.5282688 0.1581561 0.5146115 0.2031785 0.9717311 0.158156 0.5282688 0.1581561 0.9495527 0.1166631 0.9197056 0.08029437 0.5802943 0.08029443 0.9197056 0.08029437 0.8833369 0.05044728 0.616663 0.05044734 0.8833369 0.05044728 0.841844 0.02826887 0.616663 0.05044734 0.841844 0.02826887 0.7968216 0.01461148 0.6581559 0.02826893 0.616663 0.05044734 0.841844 0.02826887 0.6581559 0.02826893 0.7968216 0.01461148 0.75 0.00999999 0.7031782 0.01461154 0.7031782 0.01461154 0.6581559 0.02826893 0.7968216 0.01461148 0.616663 0.05044734 0.5802943 0.08029443 0.9197056 0.08029437 0.5802943 0.08029443 0.5504472 0.1166633 0.9495527 0.1166631 0.5504472 0.1166633 0.5282688 0.1581561 0.9495527 0.1166631 0.5146115 0.2031785 0.51 0.2500002 0.99 0.25 0.51 0.2500002 0.5146116 0.2968219 0.9853885 0.2968217 0.5146116 0.2968219 0.5282691 0.3418443 0.9853885 0.2968217 0.5504475 0.3833371 0.5802946 0.4197058 0.9197056 0.4197056 0.5802946 0.4197058 0.6166634 0.4495529 0.8833369 0.4495527</float_array>
          <technique_common>
            <accessor source="#Cube_001-mesh-map-0-array" count="1740" stride="2">
              <param name="S" type="float"/>
              <param name="T" type="float"/>
            </accessor>
          </technique_common>
        </source>
        <vertices id="Cube_001-mesh-vertices">
          <input semantic="POSITION" source="#Cube_001-mesh-positions"/>
        </vertices>
        <triangles material="Material-material" count="84">
          <input semantic="VERTEX" source="#Cube_001-mesh-vertices" offset="0"/>
          <input semantic="NORMAL" source="#Cube_001-mesh-normals" offset="1"/>
          <input semantic="TEXCOORD" source="#Cube_001-mesh-map-0" offset="2" set="0"/>
          <p>4 0 0 2 0 1 0 0 2 2 1 3 7 1 4 3 1 5 6 2 6 5 2 7 7 2 8 1 3 9 7 3 10 5 3 11 0 4 12 3 4 13 1 4 14 4 5 15 1 5 16 5 5 17 12 0 18 10 0 19 8 0 20 10 1 21 15 1 22 11 1 23 14 2 24 13 2 25 15 2 26 9 3 27 15 3 28 13 3 29 8 4 30 11 4 31 9 4 32 12 5 33 9 5 34 13 5 35 20 0 36 18 0 37 16 0 38 18 1 39 23 1 40 19 1 41 22 2 42 21 2 43 23 2 44 17 3 45 23 3 46 21 3 47 16 4 48 19 4 49 17 4 50 20 5 51 17 5 52 21 5 53 25 2 54 26 2 55 24 2 56 27 5 57 30 5 58 26 5 59 31 4 60 28 4 61 30 4 62 29 1 63 24 1 64 28 1 65 30 3 66 24 3 67 26 3 68 27 0 69 29 0 70 31 0 71 33 2 72 34 2 73 32 2 74 35 5 75 38 5 76 34 5 77 39 4 78 36 4 79 38 4 80 37 1 81 32 1 82 36 1 83 38 3 84 32 3 85 34 3 86 35 0 87 37 0 88 39 0 89 41 2 90 42 2 91 40 2 92 43 5 93 46 5 94 42 5 95 47 4 96 44 4 97 46 4 98 45 1 99 40 1 100 44 1 101 46 3 102 40 3 103 42 3 104 43 0 105 45 0 106 47 0 107 49 2 108 50 2 109 48 2 110 51 5 111 54 5 112 50 5 113 55 4 114 52 4 115 54 4 116 53 1 117 48 1 118 52 1 119 54 3 120 48 3 121 50 3 122 51 0 123 53 0 124 55 0 125 4 0 534 6 0 535 2 0 536 2 1 537 6 1 538 7 1 539 6 2 540 4 2 541 5 2 542 1 3 543 3 3 544 7 3 545 0 4 546 2 4 547 3 4 548 4 5 549 0 5 550 1 5 551 12 0 552 14 0 553 10 0 554 10 1 555 14 1 556 15 1 557 14 2 558 12 2 559 13 2 560 9 3 561 11 3 562 15 3 563 8 4 564 10 4 565 11 4 566 12 5 567 8 5 568 9 5 569 20 0 570 22 0 571 18 0 572 18 1 573 22 1 574 23 1 575 22 2 576 20 2 577 21 2 578 17 3 579 19 3 580 23 3 581 16 4 582 18 4 583 19 4 584 20 5 585 16 5 586 17 5 587 25 2 588 27 2 589 26 2 590 27 5 591 31 5 592 30 5 593 31 4 594 29 4 595 28 4 596 29 1 597 25 1 598 24 1 599 30 3 600 28 3 601 24 3 602 27 0 603 25 0 604 29 0 605 33 2 606 35 2 607 34 2 608 35 5 609 39 5 610 38 5 611 39 4 612 37 4 613 36 4 614 37 1 615 33 1 616 32 1 617 38 3 618 36 3 619 32 3 620 35 0 621 33 0 622 37 0 623 41 2 624 43 2 625 42 2 626 43 5 627 47 5 628 46 5 629 47 4 630 45 4 631 44 4 632 45 1 633 41 1 634 40 1 635 46 3 636 44 3 637 40 3 638 43 0 639 41 0 640 45 0 641 49 2 642 51 2 643 50 2 644 51 5 645 55 5 646 54 5 647 55 4 648 53 4 649 52 4 650 53 1 651 49 1 652 48 1 653 54 3 654 52 3 655 48 3 656 51 0 657 49 0 658 53 0 659</p>
        </triangles>
        <triangles material="Material_001-material" count="496">
          <input semantic="VERTEX" source="#Cube_001-mesh-vertices" offset="0"/>
          <input semantic="NORMAL" source="#Cube_001-mesh-normals" offset="1"/>
          <input semantic="TEXCOORD" source="#Cube_001-mesh-map-0" offset="2" set="0"/>
          <p>57 6 126 58 6 127 56 6 128 59 7 129 60 7 130 58 7 131 61 8 132 62 8 133 60 8 134 63 9 135 64 9 136 62 9 137 65 10 138 66 10 139 64 10 140 67 11 141 68 11 142 66 11 143 69 12 144 70 12 145 68 12 146 71 13 147 72 13 148 70 13 149 73 14 150 74 14 151 72 14 152 75 15 153 76 15 154 74 15 155 77 16 156 78 16 157 76 16 158 79 17 159 80 17 160 78 17 161 81 18 162 82 18 163 80 18 164 83 19 165 84 19 166 82 19 167 85 20 168 86 20 169 84 20 170 87 21 171 88 21 172 86 21 173 89 22 174 90 22 175 88 22 176 91 23 177 92 23 178 90 23 179 93 24 180 94 24 181 92 24 182 95 25 183 96 25 184 94 25 185 97 26 186 98 26 187 96 26 188 99 27 189 100 27 190 98 27 191 101 28 192 102 28 193 100 28 194 103 29 195 104 29 196 102 29 197 105 30 198 106 30 199 104 30 200 107 31 201 108 31 202 106 31 203 109 32 204 110 32 205 108 32 206 111 33 207 112 33 208 110 33 209 113 34 210 114 34 211 112 34 212 115 35 213 116 35 214 114 35 215 65 0 216 63 0 217 113 0 218 117 36 219 118 36 220 116 36 221 119 37 222 56 37 223 118 37 224 114 3 225 116 3 226 62 3 227 121 38 228 122 38 229 120 38 230 123 39 231 124 39 232 122 39 233 125 40 234 126 40 235 124 40 236 127 41 237 128 41 238 126 41 239 129 42 240 130 42 241 128 42 242 131 43 243 132 43 244 130 43 245 133 44 246 134 44 247 132 44 248 135 45 249 136 45 250 134 45 251 137 46 252 138 46 253 136 46 254 139 47 255 140 47 256 138 47 257 141 48 258 142 48 259 140 48 260 143 49 261 144 49 262 142 49 263 145 50 264 146 50 265 144 50 266 147 51 267 148 51 268 146 51 269 149 52 270 150 52 271 148 52 272 151 53 273 152 53 274 150 53 275 153 54 276 154 54 277 152 54 278 155 55 279 156 55 280 154 55 281 157 56 282 158 56 283 156 56 284 159 57 285 160 57 286 158 57 287 161 58 288 162 58 289 160 58 290 163 59 291 164 59 292 162 59 293 165 60 294 166 60 295 164 60 296 167 61 297 168 61 298 166 61 299 169 62 300 170 62 301 168 62 302 171 63 303 172 63 304 170 63 305 173 64 306 174 64 307 172 64 308 175 65 309 176 65 310 174 65 311 177 66 312 178 66 313 176 66 314 179 67 315 180 67 316 178 67 317 129 0 318 127 0 319 177 0 320 181 68 321 182 68 322 180 68 323 183 69 324 120 69 325 182 69 326 178 3 327 180 3 328 126 3 329 185 70 330 186 70 331 184 70 332 187 39 333 188 39 334 186 39 335 189 71 336 190 71 337 188 71 338 191 41 339 192 41 340 190 41 341 193 42 342 194 42 343 192 42 344 195 43 345 196 43 346 194 43 347 197 44 348 198 44 349 196 44 350 199 72 351 200 72 352 198 72 353 201 73 354 202 73 355 200 73 356 203 74 357 204 74 358 202 74 359 205 75 360 206 75 361 204 75 362 207 49 363 208 49 364 206 49 365 209 76 366 210 76 367 208 76 368 211 77 369 212 77 370 210 77 371 213 52 372 214 52 373 212 52 374 215 53 375 216 53 376 214 53 377 217 78 378 218 78 379 216 78 380 219 55 381 220 55 382 218 55 383 221 79 384 222 79 385 220 79 386 223 57 387 224 57 388 222 57 389 225 58 390 226 58 391 224 58 392 227 59 393 228 59 394 226 59 395 229 60 396 230 60 397 228 60 398 231 80 399 232 80 400 230 80 401 233 81 402 234 81 403 232 81 404 235 82 405 236 82 406 234 82 407 237 83 408 238 83 409 236 83 410 239 65 411 240 65 412 238 65 413 241 84 414 242 84 415 240 84 416 243 85 417 244 85 418 242 85 419 193 0 420 191 0 421 241 0 422 245 68 423 246 68 424 244 68 425 247 69 426 184 69 427 246 69 428 242 3 429 244 3 430 190 3 431 249 86 432 250 86 433 248 86 434 251 7 435 252 7 436 250 7 437 253 87 438 254 87 439 252 87 440 255 9 441 256 9 442 254 9 443 257 10 444 258 10 445 256 10 446 259 11 447 260 11 448 258 11 449 261 12 450 262 12 451 260 12 452 263 88 453 264 88 454 262 88 455 265 89 456 266 89 457 264 89 458 267 90 459 268 90 460 266 90 461 269 91 462 270 91 463 268 91 464 271 17 465 272 17 466 270 17 467 273 92 468 274 92 469 272 92 470 275 93 471 276 93 472 274 93 473 277 20 474 278 20 475 276 20 476 279 21 477 280 21 478 278 21 479 281 94 480 282 94 481 280 94 482 283 23 483 284 23 484 282 23 485 285 95 486 286 95 487 284 95 488 287 25 489 288 25 490 286 25 491 289 26 492 290 26 493 288 26 494 291 27 495 292 27 496 290 27 497 293 28 498 294 28 499 292 28 500 295 96 501 296 96 502 294 96 503 297 97 504 298 97 505 296 97 506 299 98 507 300 98 508 298 98 509 301 99 510 302 99 511 300 99 512 303 33 513 304 33 514 302 33 515 305 100 516 306 100 517 304 100 518 307 101 519 308 101 520 306 101 521 257 0 522 255 0 523 305 0 524 309 36 525 310 36 526 308 36 527 311 37 528 248 37 529 310 37 530 306 3 531 308 3 532 254 3 533 57 102 660 59 102 661 58 102 662 59 103 663 61 103 664 60 103 665 61 104 666 63 104 667 62 104 668 63 105 669 65 105 670 64 105 671 65 106 672 67 106 673 66 106 674 67 107 675 69 107 676 68 107 677 69 108 678 71 108 679 70 108 680 71 13 681 73 13 682 72 13 683 73 14 684 75 14 685 74 14 686 75 109 687 77 109 688 76 109 689 77 110 690 79 110 691 78 110 692 79 111 693 81 111 694 80 111 695 81 112 696 83 112 697 82 112 698 83 113 699 85 113 700 84 113 701 85 114 702 87 114 703 86 114 704 87 115 705 89 115 706 88 115 707 89 116 708 91 116 709 90 116 710 91 117 711 93 117 712 92 117 713 93 118 714 95 118 715 94 118 716 95 119 717 97 119 718 96 119 719 97 120 720 99 120 721 98 120 722 99 121 723 101 121 724 100 121 725 101 122 726 103 122 727 102 122 728 103 123 729 105 123 730 104 123 731 105 124 732 107 124 733 106 124 734 107 31 735 109 31 736 108 31 737 109 125 738 111 125 739 110 125 740 111 126 741 113 126 742 112 126 743 113 127 744 115 127 745 114 127 746 115 128 747 117 128 748 116 128 749 61 0 750 59 0 751 117 0 752 59 0 753 57 0 754 119 0 755 117 129 756 59 129 757 119 129 758 117 0 759 115 0 760 61 0 761 115 0 762 113 0 763 63 0 764 61 130 765 115 130 766 63 130 767 113 0 768 111 0 769 65 0 770 111 0 771 109 0 772 67 0 773 65 131 774 111 131 775 67 131 776 109 132 777 107 132 778 71 132 779 107 133 780 105 133 781 73 133 782 105 134 783 103 134 784 75 134 785 103 135 786 101 135 787 77 135 788 101 136 789 99 136 790 77 136 791 99 0 792 97 0 793 79 0 794 77 137 795 99 137 796 79 137 797 97 138 798 95 138 799 81 138 800 95 0 801 93 0 802 83 0 803 81 139 804 95 139 805 83 139 806 93 0 807 91 0 808 85 0 809 91 140 810 89 140 811 87 140 812 85 141 813 91 141 814 87 141 815 85 142 816 83 142 817 93 142 818 81 0 819 79 0 820 97 0 821 77 143 822 75 143 823 103 143 824 75 144 825 73 144 826 105 144 827 73 145 828 71 145 829 107 145 830 71 146 831 69 146 832 109 146 833 69 0 834 67 0 835 109 0 836 117 147 837 119 147 838 118 147 839 119 148 840 57 148 841 56 148 842 118 3 843 56 3 844 58 3 845 58 3 846 60 3 847 118 3 848 60 3 849 62 3 850 116 3 851 118 149 852 60 149 853 116 149 854 62 150 855 64 150 856 112 150 857 64 151 858 66 151 859 110 151 860 66 3 861 68 3 862 110 3 863 68 3 864 70 3 865 108 3 866 110 152 867 68 152 868 108 152 869 70 153 870 72 153 871 104 153 872 72 154 873 74 154 874 102 154 875 74 3 876 76 3 877 102 3 878 76 3 879 78 3 880 100 3 881 102 155 882 76 155 883 100 155 884 78 156 885 80 156 886 96 156 887 80 157 888 82 157 889 94 157 890 82 3 891 84 3 892 94 3 893 84 3 894 86 3 895 92 3 896 94 158 897 84 158 898 92 158 899 86 3 900 88 3 901 90 3 902 90 3 903 92 3 904 86 3 905 94 159 906 96 159 907 80 159 908 96 160 909 98 160 910 78 160 911 98 3 912 100 3 913 78 3 914 102 161 915 104 161 916 72 161 917 104 162 918 106 162 919 70 162 920 106 3 921 108 3 922 70 3 923 110 163 924 112 163 925 64 163 926 112 164 927 114 164 928 62 164 929 121 165 930 123 165 931 122 165 932 123 166 933 125 166 934 124 166 935 125 167 936 127 167 937 126 167 938 127 168 939 129 168 940 128 168 941 129 169 942 131 169 943 130 169 944 131 170 945 133 170 946 132 170 947 133 171 948 135 171 949 134 171 950 135 172 951 137 172 952 136 172 953 137 173 954 139 173 955 138 173 956 139 174 957 141 174 958 140 174 959 141 175 960 143 175 961 142 175 962 143 176 963 145 176 964 144 176 965 145 177 966 147 177 967 146 177 968 147 178 969 149 178 970 148 178 971 149 179 972 151 179 973 150 179 974 151 180 975 153 180 976 152 180 977 153 181 978 155 181 979 154 181 980 155 182 981 157 182 982 156 182 983 157 183 984 159 183 985 158 183 986 159 184 987 161 184 988 160 184 989 161 185 990 163 185 991 162 185 992 163 186 993 165 186 994 164 186 995 165 187 996 167 187 997 166 187 998 167 188 999 169 188 1000 168 188 1001 169 189 1002 171 189 1003 170 189 1004 171 190 1005 173 190 1006 172 190 1007 173 191 1008 175 191 1009 174 191 1010 175 192 1011 177 192 1012 176 192 1013 177 193 1014 179 193 1015 178 193 1016 179 194 1017 181 194 1018 180 194 1019 125 0 1020 123 0 1021 183 0 1022 123 0 1023 121 0 1024 183 0 1025 183 0 1026 181 0 1027 125 0 1028 181 0 1029 179 0 1030 125 0 1031 179 0 1032 177 0 1033 127 0 1034 125 0 1035 179 0 1036 127 0 1037 177 0 1038 175 0 1039 129 0 1040 175 0 1041 173 0 1042 131 0 1043 129 0 1044 175 0 1045 131 0 1046 173 0 1047 171 0 1048 135 0 1049 171 0 1050 169 0 1051 137 0 1052 169 0 1053 167 0 1054 139 0 1055 167 0 1056 165 0 1057 141 0 1058 165 0 1059 163 0 1060 141 0 1061 163 0 1062 161 0 1063 143 0 1064 141 0 1065 163 0 1066 143 0 1067 161 0 1068 159 0 1069 145 0 1070 159 0 1071 157 0 1072 147 0 1073 145 0 1074 159 0 1075 147 0 1076 157 0 1077 155 0 1078 149 0 1079 155 0 1080 153 0 1081 151 0 1082 149 0 1083 155 0 1084 151 0 1085 149 0 1086 147 0 1087 157 0 1088 145 0 1089 143 0 1090 161 0 1091 141 0 1092 139 0 1093 167 0 1094 139 0 1095 137 0 1096 169 0 1097 137 0 1098 135 0 1099 171 0 1100 135 0 1101 133 0 1102 173 0 1103 133 0 1104 131 0 1105 173 0 1106 181 195 1107 183 195 1108 182 195 1109 183 196 1110 121 196 1111 120 196 1112 182 3 1113 120 3 1114 122 3 1115 122 3 1116 124 3 1117 182 3 1118 124 3 1119 126 3 1120 180 3 1121 182 3 1122 124 3 1123 180 3 1124 126 3 1125 128 3 1126 176 3 1127 128 3 1128 130 3 1129 174 3 1130 130 3 1131 132 3 1132 174 3 1133 132 3 1134 134 3 1135 172 3 1136 174 3 1137 132 3 1138 172 3 1139 134 3 1140 136 3 1141 168 3 1142 136 3 1143 138 3 1144 166 3 1145 138 3 1146 140 3 1147 166 3 1148 140 3 1149 142 3 1150 164 3 1151 166 3 1152 140 3 1153 164 3 1154 142 3 1155 144 3 1156 160 3 1157 144 3 1158 146 3 1159 158 3 1160 146 3 1161 148 3 1162 158 3 1163 148 3 1164 150 3 1165 156 3 1166 158 3 1167 148 3 1168 156 3 1169 150 3 1170 152 3 1171 154 3 1172 154 3 1173 156 3 1174 150 3 1175 158 3 1176 160 3 1177 144 3 1178 160 3 1179 162 3 1180 142 3 1181 162 3 1182 164 3 1183 142 3 1184 166 3 1185 168 3 1186 136 3 1187 168 3 1188 170 3 1189 134 3 1190 170 3 1191 172 3 1192 134 3 1193 174 3 1194 176 3 1195 128 3 1196 176 3 1197 178 3 1198 126 3 1199 185 165 1200 187 165 1201 186 165 1202 187 166 1203 189 166 1204 188 166 1205 189 197 1206 191 197 1207 190 197 1208 191 198 1209 193 198 1210 192 198 1211 193 169 1212 195 169 1213 194 169 1214 195 199 1215 197 199 1216 196 199 1217 197 200 1218 199 200 1219 198 200 1220 199 201 1221 201 201 1222 200 201 1223 201 202 1224 203 202 1225 202 202 1226 203 174 1227 205 174 1228 204 174 1229 205 175 1230 207 175 1231 206 175 1232 207 176 1233 209 176 1234 208 176 1235 209 177 1236 211 177 1237 210 177 1238 211 203 1239 213 203 1240 212 203 1241 213 179 1242 215 179 1243 214 179 1244 215 204 1245 217 204 1246 216 204 1247 217 181 1248 219 181 1249 218 181 1250 219 182 1251 221 182 1252 220 182 1253 221 205 1254 223 205 1255 222 205 1256 223 206 1257 225 206 1258 224 206 1259 225 185 1260 227 185 1261 226 185 1262 227 207 1263 229 207 1264 228 207 1265 229 208 1266 231 208 1267 230 208 1268 231 209 1269 233 209 1270 232 209 1271 233 210 1272 235 210 1273 234 210 1274 235 190 1275 237 190 1276 236 190 1277 237 191 1278 239 191 1279 238 191 1280 239 192 1281 241 192 1282 240 192 1283 241 193 1284 243 193 1285 242 193 1286 243 211 1287 245 211 1288 244 211 1289 189 0 1290 187 0 1291 247 0 1292 187 0 1293 185 0 1294 247 0 1295 247 0 1296 245 0 1297 189 0 1298 245 0 1299 243 0 1300 189 0 1301 243 0 1302 241 0 1303 191 0 1304 189 0 1305 243 0 1306 191 0 1307 241 0 1308 239 0 1309 193 0 1310 239 0 1311 237 0 1312 195 0 1313 193 0 1314 239 0 1315 195 0 1316 237 0 1317 235 0 1318 199 0 1319 235 0 1320 233 0 1321 201 0 1322 233 0 1323 231 0 1324 203 0 1325 231 0 1326 229 0 1327 205 0 1328 229 0 1329 227 0 1330 205 0 1331 227 0 1332 225 0 1333 207 0 1334 205 0 1335 227 0 1336 207 0 1337 225 0 1338 223 0 1339 209 0 1340 223 0 1341 221 0 1342 211 0 1343 209 0 1344 223 0 1345 211 0 1346 221 0 1347 219 0 1348 213 0 1349 219 0 1350 217 0 1351 215 0 1352 213 0 1353 219 0 1354 215 0 1355 213 0 1356 211 0 1357 221 0 1358 209 0 1359 207 0 1360 225 0 1361 205 0 1362 203 0 1363 231 0 1364 203 0 1365 201 0 1366 233 0 1367 201 0 1368 199 0 1369 235 0 1370 199 0 1371 197 0 1372 237 0 1373 197 0 1374 195 0 1375 237 0 1376 245 195 1377 247 195 1378 246 195 1379 247 212 1380 185 212 1381 184 212 1382 246 3 1383 184 3 1384 186 3 1385 186 3 1386 188 3 1387 246 3 1388 188 3 1389 190 3 1390 244 3 1391 246 3 1392 188 3 1393 244 3 1394 190 3 1395 192 3 1396 240 3 1397 192 3 1398 194 3 1399 238 3 1400 194 3 1401 196 3 1402 238 3 1403 196 3 1404 198 3 1405 236 3 1406 238 3 1407 196 3 1408 236 3 1409 198 3 1410 200 3 1411 232 3 1412 200 3 1413 202 3 1414 230 3 1415 202 3 1416 204 3 1417 230 3 1418 204 3 1419 206 3 1420 228 3 1421 230 3 1422 204 3 1423 228 3 1424 206 3 1425 208 3 1426 224 3 1427 208 3 1428 210 3 1429 222 3 1430 210 3 1431 212 3 1432 222 3 1433 212 3 1434 214 3 1435 220 3 1436 222 3 1437 212 3 1438 220 3 1439 214 3 1440 216 3 1441 218 3 1442 218 3 1443 220 3 1444 214 3 1445 222 3 1446 224 3 1447 208 3 1448 224 3 1449 226 3 1450 206 3 1451 226 3 1452 228 3 1453 206 3 1454 230 3 1455 232 3 1456 200 3 1457 232 3 1458 234 3 1459 198 3 1460 234 3 1461 236 3 1462 198 3 1463 238 3 1464 240 3 1465 192 3 1466 240 3 1467 242 3 1468 190 3 1469 249 102 1470 251 102 1471 250 102 1472 251 103 1473 253 103 1474 252 103 1475 253 213 1476 255 213 1477 254 213 1478 255 214 1479 257 214 1480 256 214 1481 257 106 1482 259 106 1483 258 106 1484 259 215 1485 261 215 1486 260 215 1487 261 216 1488 263 216 1489 262 216 1490 263 217 1491 265 217 1492 264 217 1493 265 218 1494 267 218 1495 266 218 1496 267 109 1497 269 109 1498 268 109 1499 269 110 1500 271 110 1501 270 110 1502 271 111 1503 273 111 1504 272 111 1505 273 112 1506 275 112 1507 274 112 1508 275 219 1509 277 219 1510 276 219 1511 277 114 1512 279 114 1513 278 114 1514 279 220 1515 281 220 1516 280 220 1517 281 116 1518 283 116 1519 282 116 1520 283 117 1521 285 117 1522 284 117 1523 285 221 1524 287 221 1525 286 221 1526 287 222 1527 289 222 1528 288 222 1529 289 120 1530 291 120 1531 290 120 1532 291 223 1533 293 223 1534 292 223 1535 293 224 1536 295 224 1537 294 224 1538 295 96 1539 297 96 1540 296 96 1541 297 225 1542 299 225 1543 298 225 1544 299 31 1545 301 31 1546 300 31 1547 301 125 1548 303 125 1549 302 125 1550 303 126 1551 305 126 1552 304 126 1553 305 127 1554 307 127 1555 306 127 1556 307 226 1557 309 226 1558 308 226 1559 253 0 1560 251 0 1561 309 0 1562 251 0 1563 249 0 1564 311 0 1565 309 129 1566 251 129 1567 311 129 1568 309 0 1569 307 0 1570 253 0 1571 307 0 1572 305 0 1573 255 0 1574 253 130 1575 307 130 1576 255 130 1577 305 0 1578 303 0 1579 257 0 1580 303 0 1581 301 0 1582 259 0 1583 257 131 1584 303 131 1585 259 131 1586 301 132 1587 299 132 1588 263 132 1589 299 133 1590 297 133 1591 265 133 1592 297 134 1593 295 134 1594 267 134 1595 295 135 1596 293 135 1597 269 135 1598 293 136 1599 291 136 1600 269 136 1601 291 0 1602 289 0 1603 271 0 1604 269 137 1605 291 137 1606 271 137 1607 289 138 1608 287 138 1609 273 138 1610 287 0 1611 285 0 1612 275 0 1613 273 139 1614 287 139 1615 275 139 1616 285 0 1617 283 0 1618 277 0 1619 283 140 1620 281 140 1621 279 140 1622 277 141 1623 283 141 1624 279 141 1625 277 142 1626 275 142 1627 285 142 1628 273 0 1629 271 0 1630 289 0 1631 269 143 1632 267 143 1633 295 143 1634 267 144 1635 265 144 1636 297 144 1637 265 145 1638 263 145 1639 299 145 1640 263 146 1641 261 146 1642 301 146 1643 261 0 1644 259 0 1645 301 0 1646 309 147 1647 311 147 1648 310 147 1649 311 227 1650 249 227 1651 248 227 1652 310 3 1653 248 3 1654 250 3 1655 250 3 1656 252 3 1657 310 3 1658 252 3 1659 254 3 1660 308 3 1661 310 149 1662 252 149 1663 308 149 1664 254 150 1665 256 150 1666 304 150 1667 256 151 1668 258 151 1669 302 151 1670 258 3 1671 260 3 1672 302 3 1673 260 3 1674 262 3 1675 300 3 1676 302 152 1677 260 152 1678 300 152 1679 262 153 1680 264 153 1681 296 153 1682 264 154 1683 266 154 1684 294 154 1685 266 3 1686 268 3 1687 294 3 1688 268 3 1689 270 3 1690 292 3 1691 294 155 1692 268 155 1693 292 155 1694 270 156 1695 272 156 1696 288 156 1697 272 157 1698 274 157 1699 286 157 1700 274 3 1701 276 3 1702 286 3 1703 276 3 1704 278 3 1705 284 3 1706 286 158 1707 276 158 1708 284 158 1709 278 3 1710 280 3 1711 282 3 1712 282 3 1713 284 3 1714 278 3 1715 286 159 1716 288 159 1717 272 159 1718 288 160 1719 290 160 1720 270 160 1721 290 3 1722 292 3 1723 270 3 1724 294 161 1725 296 161 1726 264 161 1727 296 162 1728 298 162 1729 262 162 1730 298 3 1731 300 3 1732 262 3 1733 302 163 1734 304 163 1735 256 163 1736 304 164 1737 306 164 1738 254 164 1739</p>
        </triangles>
      </mesh>
    </geometry>
  </library_geometries>
  <library_visual_scenes>
    <visual_scene id="Scene" name="Scene">
      <node id="Cube" name="Cube" type="NODE">
        <matrix sid="transform">0.05 0 0 0 0 0.05 0 0 0 0 0.01 0.022 0 0 0 1</matrix>
        <instance_geometry url="#Cube-mesh" name="Cube"/>
      </node>
      <node id="Cube_001" name="Cube.001" type="NODE">
        <matrix sid="transform">0.25 0 0 0 0 0.015 0 -0.1 0 0 0.015 0 0 0 0 1</matrix>
        <instance_geometry url="#Cube_001-mesh" name="Cube.001">
          <bind_material>
            <technique_common>
              <instance_material symbol="Material-material" target="#Material-material">
                <bind_vertex_input semantic="UVMap" input_semantic="TEXCOORD" input_set="0"/>
              </instance_material>
              <instance_material symbol="Material_001-material" target="#Material_001-material">
                <bind_vertex_input semantic="UVMap" input_semantic="TEXCOORD" input_set="0"/>
              </instance_material>
            </technique_common>
          </bind_material>
        </instance_geometry>
      </node>
      <node id="Camera" name="Camera" type="NODE">
        <matrix sid="transform">0.6859207 -0.3240135 0.6515582 7.358891 0.7276763 0.3054208 -0.6141704 -6.925791 0 0.8953956 0.4452714 4.958309 0 0 0 1</matrix>
        <instance_camera url="#Camera-camera"/>
      </node>
      <node id="Light" name="Light" type="NODE">
        <matrix sid="transform">-0.2908646 -0.7711008 0.5663932 4.076245 0.9551712 -0.1998834 0.2183912 1.005454 -0.05518906 0.6045247 0.7946723 5.903862 0 0 0 1</matrix>
        <instance_light url="#Light-light"/>
      </node>
    </visual_scene>
  </library_visual_scenes>
  <scene>
    <instance_visual_scene url="#Scene"/>
  </scene>
</COLLADA>